<svg width="19" height="19" viewBox="0 0 19 19" fill="none" xmlns="http://www.w3.org/2000/svg">
<g clip-path="url(#clip0_200_488)">
<path d="M17.7583 12.7595C17.6045 12.7595 17.4798 12.8842 17.4798 13.038V16.2432C17.4798 16.5455 17.2339 16.7915 16.9315 16.7915H8.90941V15.9727C8.90941 15.8891 8.89304 15.7823 8.83701 15.665C9.18194 15.5385 9.46649 15.384 9.6628 15.2019H10.2243C10.6712 15.2019 11.0348 14.8383 11.0348 14.3914C11.0348 13.9444 10.6712 13.5808 10.2243 13.5808H9.9593V13.0447C9.9593 13.0384 9.95904 13.0321 9.95886 13.0258H10.2243C10.6712 13.0258 11.0348 12.6621 11.0348 12.2152C11.0348 11.7683 10.6712 11.4047 10.2243 11.4047H9.53466C9.28273 11.4047 9.05729 11.5202 8.90852 11.7011C8.90893 11.6913 8.90945 11.6816 8.90945 11.6717V10.5543C9.05822 10.7344 9.28325 10.8495 9.53463 10.8495H10.2242C10.6712 10.8495 11.0348 10.4859 11.0348 10.039C11.0348 9.59201 10.6712 9.22842 10.2242 9.22842H9.95927V8.14122H10.2242C10.6712 8.14122 11.0348 7.77763 11.0348 7.33068C11.0348 6.88374 10.6712 6.52014 10.2242 6.52014H9.53459C9.31401 6.52014 9.10486 6.61132 8.95394 6.76592C8.18886 6.45821 7.08389 6.30038 5.98623 6.30038C5.63767 6.30038 5.28839 6.31634 4.94944 6.34792V1.1053C4.94944 0.802971 5.1954 0.557011 5.49773 0.557011H7.75149C7.9053 0.557011 8.02999 0.432323 8.02999 0.278505C8.02999 0.124687 7.9053 0 7.75149 0H5.49773C4.88824 0 4.39243 0.495854 4.39243 1.1053V6.41568C3.06302 6.61685 2.01324 7.07938 2.01324 7.7862V9.07794C1.14818 9.41229 0.963379 9.82517 0.963379 10.1166V11.6717C0.963379 12.1319 1.40839 12.4885 2.08571 12.737C2.02971 12.8541 2.01328 12.9609 2.01328 13.0447V14.5998C2.01328 14.708 2.03795 14.8104 2.08438 14.9071C1.16767 15.2409 0.963379 15.6632 0.963379 15.9727V17.5279C0.963379 18.4546 2.71008 18.895 4.20584 18.9905C4.21189 18.9909 4.21786 18.9911 4.22384 18.9911C4.36953 18.9911 4.4921 18.8778 4.50153 18.7304C4.51132 18.5768 4.39484 18.4444 4.24132 18.4346C2.34203 18.3133 1.52039 17.7755 1.52039 17.5279V16.7704C2.25148 17.2244 3.5994 17.4584 4.93637 17.4584C6.27335 17.4584 7.62127 17.2244 8.35236 16.7704V17.5279C8.35236 17.8055 7.39216 18.3489 5.47902 18.4433C5.32539 18.4509 5.20698 18.5816 5.21458 18.7352C5.22193 18.8842 5.34502 19 5.49249 19C5.49713 19 5.50177 18.9999 5.50645 18.9997C7.20026 18.9161 8.90941 18.4286 8.90941 17.5279V17.3486H16.9316C17.5411 17.3486 18.0369 16.8527 18.0369 16.2433V13.0381C18.0369 12.8842 17.9122 12.7595 17.7583 12.7595ZM9.95927 14.5998V14.1379H10.2242V14.1379C10.364 14.1379 10.4777 14.2516 10.4777 14.3914C10.4777 14.5311 10.364 14.6449 10.2242 14.6449H9.95782C9.95878 14.63 9.95927 14.6149 9.95927 14.5998ZM9.53463 11.9617H10.2242C10.364 11.9617 10.4777 12.0754 10.4777 12.2152C10.4777 12.3549 10.364 12.4687 10.2242 12.4687H9.69297C9.59374 12.3701 9.46059 12.2713 9.28443 12.176C9.30332 12.0548 9.40816 11.9617 9.53463 11.9617ZM9.40226 13.0446C9.40226 13.1553 9.21478 13.4039 8.51219 13.6335C7.84155 13.8526 6.94451 13.9733 5.98627 13.9733C3.77597 13.9733 2.57029 13.3598 2.57029 13.0446C2.57021 12.9964 2.60127 12.9458 2.63675 12.9035C3.31466 13.0717 4.1275 13.1574 4.93634 13.1574C6.31491 13.1574 7.70514 12.9085 8.41875 12.4263C9.19433 12.6613 9.40226 12.9316 9.40226 13.0446ZM10.2243 9.7855C10.364 9.78546 10.4777 9.89917 10.4777 10.039C10.4777 10.1788 10.364 10.2925 10.2242 10.2925H9.53463C9.44872 10.2925 9.37283 10.2494 9.32696 10.1839C9.53284 10.0668 9.69609 9.93383 9.80519 9.7855H10.2243ZM9.53463 7.0773H10.2242C10.364 7.0773 10.4777 7.191 10.4777 7.33079C10.4777 7.47059 10.364 7.58429 10.2242 7.58429H9.92902C9.87161 7.39485 9.73383 7.2257 9.53355 7.07734C9.53396 7.07734 9.53425 7.0773 9.53463 7.0773ZM3.46032 7.19735C4.13095 6.97822 5.02796 6.85754 5.98623 6.85754C8.19654 6.85754 9.40222 7.47103 9.40222 7.78624C9.40222 7.89693 9.21474 8.14553 8.51215 8.37509C7.84151 8.59422 6.94447 8.7149 5.98623 8.7149C3.77593 8.7149 2.57025 8.10141 2.57025 7.78624C2.57021 7.6755 2.75773 7.42691 3.46032 7.19735ZM2.57017 8.58386C3.3013 9.03786 4.64922 9.27194 5.9862 9.27194C7.32317 9.27194 8.67109 9.03782 9.40218 8.58386V9.34141C9.40218 9.42847 9.28607 9.60081 8.89479 9.78209C8.89375 9.78253 8.89278 9.78302 8.89178 9.78346C8.78613 9.83226 8.66078 9.88169 8.51208 9.93026C7.84144 10.1494 6.94443 10.2701 5.98616 10.2701C3.77589 10.2701 2.57017 9.65658 2.57017 9.34138V8.58386ZM2.08534 9.65065C2.45948 10.4243 4.23237 10.8271 5.98623 10.8271C6.44112 10.8271 6.89723 10.7999 7.32996 10.7463C6.6755 10.939 5.82622 11.0452 4.93641 11.0452C2.72611 11.0452 1.52043 10.4317 1.52043 10.1165C1.52039 10.0014 1.69707 9.82116 2.08534 9.65065ZM1.52039 11.6717V10.9141C2.25148 11.3681 3.5994 11.6022 4.93637 11.6022C6.1972 11.6022 7.59682 11.3837 8.35236 10.915V11.6717C8.35236 11.7824 8.16488 12.031 7.46229 12.2605C6.79165 12.4797 5.89465 12.6004 4.93637 12.6004C2.72607 12.6004 1.52039 11.9869 1.52039 11.6717ZM7.46229 16.5616C6.79165 16.7807 5.89465 16.9014 4.93637 16.9014C2.72607 16.9014 1.52039 16.2879 1.52039 15.9727C1.52039 15.8165 1.82877 15.5594 2.5039 15.3545C3.21755 15.8366 4.60773 16.0855 5.98623 16.0855C6.79514 16.0855 7.60799 15.9998 8.28593 15.8316C8.32115 15.8735 8.35236 15.9243 8.35236 15.9727C8.35236 16.0834 8.16488 16.332 7.46229 16.5616ZM8.51212 15.1887C7.84151 15.4078 6.94447 15.5285 5.9862 15.5285C3.77593 15.5285 2.57021 14.915 2.57021 14.5998V13.8423C3.3013 14.2962 4.64922 14.5303 5.9862 14.5303C7.32317 14.5303 8.67109 14.2962 9.40218 13.8423V14.5998C9.40222 14.7105 9.21474 14.9591 8.51212 15.1887Z" fill="#525F7F"/>
<path d="M16.9316 0H9.02069C8.86687 0 8.74219 0.124687 8.74219 0.278505C8.74219 0.432323 8.86687 0.557011 9.02069 0.557011H16.9316C17.2339 0.557011 17.4799 0.802971 17.4799 1.1053V11.7688C17.4799 11.9226 17.6046 12.0473 17.7584 12.0473C17.9123 12.0473 18.0369 11.9226 18.0369 11.7688V1.1053C18.0369 0.495854 17.5411 0 16.9316 0Z" fill="#525F7F"/>
<path d="M16.4331 2.27551C16.4331 2.12169 16.3084 1.997 16.1546 1.997H6.27411C6.12029 1.997 5.99561 2.12169 5.99561 2.27551V5.0131C5.99561 5.16692 6.12029 5.2916 6.27411 5.2916H16.1546C16.3085 5.2916 16.4331 5.16692 16.4331 5.0131L16.4331 2.27551ZM15.8761 4.73459H6.55262V2.55401H15.8761V4.73459Z" fill="#525F7F"/>
<path d="M12.8947 6.52025H12.2051C11.7581 6.52025 11.3945 6.88385 11.3945 7.33079C11.3945 7.77774 11.7581 8.14134 12.2051 8.14134H12.8947C13.3416 8.14134 13.7052 7.77774 13.7052 7.33079C13.7052 6.88385 13.3416 6.52025 12.8947 6.52025ZM12.8947 7.58429H12.2051C12.0653 7.58429 11.9516 7.47058 11.9516 7.33079C11.9516 7.191 12.0653 7.0773 12.2051 7.0773H12.8947C13.0345 7.0773 13.1482 7.191 13.1482 7.33079C13.1482 7.47058 13.0344 7.58429 12.8947 7.58429Z" fill="#525F7F"/>
<path d="M15.5651 6.52025H14.8755C14.4285 6.52025 14.0649 6.88385 14.0649 7.33079C14.0649 7.77774 14.4285 8.14134 14.8755 8.14134H15.5651C16.012 8.14134 16.3756 7.77774 16.3756 7.33079C16.3756 6.88385 16.012 6.52025 15.5651 6.52025ZM15.5651 7.58429H14.8755C14.7357 7.58429 14.622 7.47058 14.622 7.33079C14.622 7.191 14.7357 7.0773 14.8755 7.0773H15.5651C15.7049 7.0773 15.8186 7.191 15.8186 7.33079C15.8186 7.47058 15.7049 7.58429 15.5651 7.58429Z" fill="#525F7F"/>
<path d="M12.8947 9.22842H12.2051C11.7581 9.22842 11.3945 9.59201 11.3945 10.039C11.3945 10.4859 11.7581 10.8495 12.2051 10.8495H12.8947C13.3416 10.8495 13.7052 10.4859 13.7052 10.039C13.7052 9.59201 13.3416 9.22842 12.8947 9.22842ZM12.8947 10.2925H12.2051C12.0653 10.2925 11.9516 10.1788 11.9516 10.039C11.9516 9.8992 12.0653 9.7855 12.2051 9.7855H12.8947C13.0345 9.7855 13.1482 9.8992 13.1482 10.039C13.1481 10.1788 13.0344 10.2925 12.8947 10.2925Z" fill="#525F7F"/>
<path d="M15.5651 9.22842H14.8755C14.4285 9.22842 14.0649 9.59201 14.0649 10.039C14.0649 10.4859 14.4285 10.8495 14.8755 10.8495H15.5651C16.012 10.8495 16.3756 10.4859 16.3756 10.039C16.3756 9.59201 16.012 9.22842 15.5651 9.22842ZM15.5651 10.2925H14.8755C14.7357 10.2925 14.622 10.1788 14.622 10.039C14.622 9.8992 14.7357 9.7855 14.8755 9.7855H15.5651C15.7049 9.7855 15.8186 9.8992 15.8186 10.039C15.8186 10.1788 15.7049 10.2925 15.5651 10.2925Z" fill="#525F7F"/>
<path d="M12.8947 11.4046H12.2051C11.7581 11.4046 11.3945 11.7682 11.3945 12.2152C11.3945 12.6621 11.7581 13.0257 12.2051 13.0257H12.8947C13.3416 13.0257 13.7052 12.6621 13.7052 12.2152C13.7052 11.7682 13.3416 11.4046 12.8947 11.4046ZM12.8947 12.4687H12.2051C12.0653 12.4687 11.9516 12.3549 11.9516 12.2152C11.9516 12.0754 12.0653 11.9617 12.2051 11.9617H12.8947C13.0345 11.9617 13.1482 12.0754 13.1482 12.2152C13.1481 12.3549 13.0344 12.4687 12.8947 12.4687Z" fill="#525F7F"/>
<path d="M15.5651 11.4046H14.8755C14.4285 11.4046 14.0649 11.7682 14.0649 12.2152C14.0649 12.6621 14.4285 13.0257 14.8755 13.0257H15.5651C16.012 13.0257 16.3756 12.6621 16.3756 12.2152C16.3756 11.7682 16.012 11.4046 15.5651 11.4046ZM15.5651 12.4687H14.8755C14.7357 12.4687 14.622 12.3549 14.622 12.2152C14.622 12.0754 14.7357 11.9617 14.8755 11.9617H15.5651C15.7049 11.9617 15.8186 12.0754 15.8186 12.2152C15.8186 12.3549 15.7049 12.4687 15.5651 12.4687Z" fill="#525F7F"/>
<path d="M12.8947 13.5808H12.2051C11.7581 13.5808 11.3945 13.9444 11.3945 14.3914C11.3945 14.8383 11.7581 15.2019 12.2051 15.2019H12.8947C13.3416 15.2019 13.7052 14.8383 13.7052 14.3914C13.7052 13.9444 13.3416 13.5808 12.8947 13.5808ZM12.8947 14.6449H12.2051C12.0653 14.6449 11.9516 14.5311 11.9516 14.3913C11.9516 14.2515 12.0653 14.1378 12.2051 14.1378H12.8947C13.0345 14.1378 13.1482 14.2515 13.1482 14.3913C13.1481 14.5311 13.0344 14.6449 12.8947 14.6449Z" fill="#525F7F"/>
<path d="M15.5651 13.5808H14.8755C14.4285 13.5808 14.0649 13.9444 14.0649 14.3914C14.0649 14.8383 14.4285 15.2019 14.8755 15.2019H15.5651C16.012 15.2019 16.3756 14.8383 16.3756 14.3914C16.3756 13.9444 16.012 13.5808 15.5651 13.5808ZM15.5651 14.6449H14.8755C14.7357 14.6449 14.622 14.5311 14.622 14.3913C14.622 14.2515 14.7357 14.1378 14.8755 14.1378H15.5651C15.7049 14.1378 15.8186 14.2515 15.8186 14.3913C15.8186 14.5311 15.7049 14.6449 15.5651 14.6449Z" fill="#525F7F"/>
<path d="M3.49021 5.49886H2.54852C2.39471 5.49886 2.27002 5.62354 2.27002 5.77736C2.27002 5.93118 2.39471 6.05587 2.54852 6.05587H3.49021C3.64403 6.05587 3.76872 5.93118 3.76872 5.77736C3.76872 5.62354 3.64403 5.49886 3.49021 5.49886Z" fill="#525F7F"/>
<path d="M3.49021 4.63581H2.54852C2.39471 4.63581 2.27002 4.76049 2.27002 4.91431C2.27002 5.06813 2.39471 5.19282 2.54852 5.19282H3.49021C3.64403 5.19282 3.76872 5.06813 3.76872 4.91431C3.76872 4.76049 3.64403 4.63581 3.49021 4.63581Z" fill="#525F7F"/>
<path d="M3.48847 3.67831C3.33465 3.67831 3.20996 3.803 3.20996 3.95682C3.20996 4.11063 3.33465 4.23532 3.48847 4.23532H3.49218C3.646 4.23532 3.76883 4.11063 3.76883 3.95682C3.76883 3.803 3.64228 3.67831 3.48847 3.67831Z" fill="#525F7F"/>
</g>
<defs>
<clipPath id="clip0_200_488">
<rect width="19" height="19" fill="white"/>
</clipPath>
</defs>
</svg>
