<svg width="24" height="24" viewBox="0 0 24 24" fill="none" xmlns="http://www.w3.org/2000/svg">
<path d="M9.39941 13.0933C10.3493 13.0933 11.1221 12.3206 11.1221 11.3707C11.1221 10.4208 10.3493 9.64803 9.39941 9.64803C8.44953 9.64803 7.67676 10.4208 7.67676 11.3707C7.67676 12.3206 8.44953 13.0933 9.39941 13.0933ZM9.39941 10.4683C9.89697 10.4683 10.3018 10.8731 10.3018 11.3707C10.3018 11.8682 9.89697 12.273 9.39941 12.273C8.90185 12.273 8.49707 11.8682 8.49707 11.3707C8.49707 10.8731 8.90185 10.4683 9.39941 10.4683Z" fill="#0C3959"/>
<path d="M4.52246 14.6571C3.57258 14.6571 2.7998 15.4299 2.7998 16.3798C2.7998 17.3296 3.57258 18.1024 4.52246 18.1024C5.47234 18.1024 6.24512 17.3296 6.24512 16.3798C6.24512 15.4299 5.4723 14.6571 4.52246 14.6571ZM4.52246 17.2821C4.0249 17.2821 3.62012 16.8773 3.62012 16.3798C3.62012 15.8822 4.0249 15.4774 4.52246 15.4774C5.02002 15.4774 5.4248 15.8822 5.4248 16.3798C5.4248 16.8773 5.01998 17.2821 4.52246 17.2821Z" fill="#0C3959"/>
<path d="M4.52246 9.64803C3.57258 9.64803 2.7998 10.4208 2.7998 11.3707C2.7998 12.3206 3.57258 13.0933 4.52246 13.0933C5.47234 13.0933 6.24512 12.3206 6.24512 11.3707C6.24512 10.4208 5.4723 9.64803 4.52246 9.64803ZM4.52246 12.273C4.0249 12.273 3.62012 11.8682 3.62012 11.3707C3.62012 10.8731 4.0249 10.4683 4.52246 10.4683C5.02002 10.4683 5.4248 10.8731 5.4248 11.3707C5.4248 11.8682 5.01998 12.273 4.52246 12.273Z" fill="#0C3959"/>
<path d="M18.7988 12.6382V4.66418C18.7988 3.80478 18.0996 3.10559 17.2402 3.10559H15.8713V2.77747C15.8713 2.05375 15.2825 1.46497 14.5588 1.46497C13.8351 1.46497 13.2463 2.05375 13.2463 2.77747V3.10559H10.7119V2.77747C10.7119 2.05375 10.1231 1.46497 9.39939 1.46497C8.67567 1.46497 8.08689 2.05375 8.08689 2.77747V3.10559H5.55249V2.77747C5.55249 2.05375 4.96371 1.46497 4.23999 1.46497C3.51627 1.46497 2.92749 2.05375 2.92749 2.77747V3.10559H1.55859C0.699193 3.10559 0 3.80478 0 4.66418V18.6915C0 19.5509 0.699193 20.2501 1.55859 20.2501H11.1632C12.1573 21.5928 13.7524 22.465 15.5475 22.465C18.554 22.465 21 20.019 21 17.0125C21 15.2234 20.1338 13.6329 18.7988 12.6382ZM14.0666 2.77747C14.0666 2.50607 14.2874 2.28528 14.5588 2.28528C14.8302 2.28528 15.051 2.50607 15.051 2.77747V4.25403C15.051 4.52543 14.8302 4.74622 14.5588 4.74622C14.2874 4.74622 14.0666 4.52543 14.0666 4.25403V2.77747ZM8.90724 2.77747C8.90724 2.50607 9.12803 2.28528 9.39943 2.28528C9.67083 2.28528 9.89162 2.50607 9.89162 2.77747V4.25403C9.89162 4.52543 9.67083 4.74622 9.39943 4.74622C9.12803 4.74622 8.90724 4.52543 8.90724 4.25403V2.77747ZM3.74784 2.77747C3.74784 2.50607 3.96863 2.28528 4.24003 2.28528C4.51143 2.28528 4.73222 2.50607 4.73222 2.77747V4.25403C4.73222 4.52543 4.51143 4.74622 4.24003 4.74622C3.96863 4.74622 3.74784 4.52543 3.74784 4.25403V2.77747ZM1.55859 19.4298C1.15151 19.4298 0.820312 19.0986 0.820312 18.6915V8.35334H7.55372C7.78025 8.35334 7.96388 8.16971 7.96388 7.94318C7.96388 7.71665 7.78025 7.53302 7.55372 7.53302H0.820312V4.66418C0.820312 4.2571 1.15151 3.9259 1.55859 3.9259H2.92753V4.25403C2.92753 4.97775 3.51631 5.56653 4.24003 5.56653C4.96375 5.56653 5.55253 4.97775 5.55253 4.25403V3.9259H8.08693V4.25403C8.08693 4.97775 8.67571 5.56653 9.39943 5.56653C10.1231 5.56653 10.7119 4.97775 10.7119 4.25403V3.9259H13.2463V4.25403C13.2463 4.97775 13.8351 5.56653 14.5588 5.56653C15.2825 5.56653 15.8713 4.97775 15.8713 4.25403V3.9259H17.2403C17.6473 3.9259 17.9785 4.2571 17.9785 4.66418V7.53302H11.2451C11.0186 7.53302 10.835 7.71665 10.835 7.94318C10.835 8.16971 11.0186 8.35334 11.2451 8.35334H17.9785V12.133C17.3701 11.8286 16.6973 11.6346 15.9863 11.5777C15.9944 11.5095 15.9988 11.4405 15.9988 11.3706C15.9988 10.4208 15.2261 9.64799 14.2762 9.64799C13.3263 9.64799 12.5535 10.4208 12.5535 11.3706C12.5535 11.6991 12.6482 12.0175 12.8203 12.2903C12.7691 12.32 12.7182 12.3503 12.6678 12.3817C12.6671 12.3821 12.6664 12.3827 12.6657 12.3831L11.4869 12.6373C11.3401 12.669 11.2224 12.7783 11.18 12.9224C11.1375 13.0664 11.1772 13.2221 11.2834 13.3283L11.413 13.4579C11.0065 13.9293 10.6883 14.4595 10.4663 15.0281C10.1677 14.7927 9.79371 14.657 9.39943 14.657C8.44955 14.657 7.67677 15.4298 7.67677 16.3797C7.67677 17.3296 8.44955 18.1023 9.39943 18.1023C9.6712 18.1023 9.93456 18.0375 10.1708 17.919C10.2606 18.4527 10.428 18.9603 10.6612 19.4297H1.55859V19.4298ZM13.5694 11.9311C13.4439 11.7727 13.3738 11.5754 13.3738 11.3707C13.3738 10.8731 13.7786 10.4683 14.2761 10.4683C14.7737 10.4683 15.1785 10.8731 15.1785 11.3707C15.1785 11.4401 15.1707 11.5081 15.1555 11.5742C14.6097 11.6133 14.0755 11.7342 13.5694 11.9311ZM9.39943 17.2821C8.90187 17.2821 8.49708 16.8773 8.49708 16.3798C8.49708 15.8822 8.90187 15.4774 9.39943 15.4774C9.73424 15.4774 10.0411 15.6641 10.1968 15.9574C10.1334 16.2823 10.0993 16.6153 10.0957 16.9532C9.92484 17.1602 9.66988 17.2821 9.39943 17.2821ZM15.5475 21.6447C12.9933 21.6447 10.9153 19.5667 10.9153 17.0125C10.9153 15.7755 11.3973 14.6124 12.2723 13.7373C12.3937 13.6159 12.4231 13.4373 12.3604 13.2881L13.5596 13.0295L13.301 14.2288C13.1519 14.1664 12.9735 14.1958 12.8521 14.3171C12.1321 15.0371 11.7356 15.9943 11.7356 17.0124C11.7356 19.1143 13.4456 20.8243 15.5475 20.8243C17.6494 20.8243 19.3594 19.1144 19.3594 17.0125C19.3594 14.9106 17.6494 13.2006 15.5475 13.2006C15.1266 13.2006 14.7115 13.2703 14.318 13.4042L14.4955 12.581C14.5014 12.5539 14.5036 12.5266 14.5039 12.4994C14.844 12.421 15.1939 12.3802 15.5475 12.3802C18.1017 12.3803 20.1797 14.4583 20.1797 17.0125C20.1797 19.5666 18.1017 21.6447 15.5475 21.6447ZM15.5475 14.021C17.197 14.021 18.5391 15.3629 18.5391 17.0125C18.5391 18.6621 17.1971 20.004 15.5475 20.004C13.8979 20.004 12.5559 18.662 12.5559 17.0125C12.5559 16.3518 12.7687 15.7239 13.1617 15.2068L13.2608 15.3059C13.367 15.412 13.5226 15.4518 13.6667 15.4093C13.8108 15.3668 13.9201 15.2491 13.9518 15.1023L14.1051 14.3914C14.5451 14.1489 15.0408 14.021 15.5475 14.021Z" fill="#0C3959"/>
<path d="M15.2614 17.3706L16.2333 17.9133C16.2966 17.9487 16.3652 17.9655 16.4329 17.9655C16.5767 17.9655 16.7163 17.8897 16.7914 17.7552C16.9019 17.5574 16.8311 17.3076 16.6333 17.1971L15.8716 16.7717V15.5112C15.8716 15.2846 15.688 15.101 15.4614 15.101C15.2349 15.101 15.0513 15.2846 15.0513 15.5112V17.0125C15.0513 17.1611 15.1317 17.2981 15.2614 17.3706Z" fill="#0C3959"/>
<path d="M9.39941 8.35321C9.62594 8.35321 9.80957 8.16958 9.80957 7.94305C9.80957 7.71653 9.62594 7.5329 9.39941 7.5329C9.17289 7.5329 8.98926 7.71653 8.98926 7.94305C8.98926 8.16958 9.17289 8.35321 9.39941 8.35321Z" fill="#0C3959"/>
</svg>
