<svg width="15" height="15" viewBox="0 0 15 15" fill="none" xmlns="http://www.w3.org/2000/svg">
<g clip-path="url(#clip0_199_422)">
<path d="M4.61887 3.00627C4.48917 3.00627 4.38399 3.11142 4.38399 3.24114C4.38399 3.52606 4.1522 3.75785 3.86729 3.75785C3.58237 3.75785 3.35058 3.52606 3.35058 3.24114C3.35058 2.95623 3.58237 2.72443 3.86729 2.72443C3.99698 2.72443 4.10216 2.61929 4.10216 2.48956C4.10216 2.35983 3.99701 2.25469 3.86729 2.25469C3.32336 2.25469 2.88086 2.69722 2.88086 3.24111C2.88086 3.78501 3.32339 4.22754 3.86729 4.22754C4.41118 4.22754 4.85371 3.78501 4.85371 3.24111C4.85374 3.11142 4.74856 3.00627 4.61887 3.00627Z" fill="#525F7F"/>
<path d="M4.61887 5.76199C4.48917 5.76199 4.38399 5.86714 4.38399 5.99687C4.38399 6.28178 4.1522 6.51357 3.86729 6.51357C3.58237 6.51357 3.35058 6.28178 3.35058 5.99687C3.35058 5.71195 3.58237 5.48016 3.86729 5.48016C3.99698 5.48016 4.10216 5.37501 4.10216 5.24528C4.10216 5.11556 3.99701 5.01041 3.86729 5.01041C3.32336 5.01041 2.88086 5.45294 2.88086 5.99684C2.88086 6.54073 3.32339 6.98326 3.86729 6.98326C4.41118 6.98326 4.85371 6.54073 4.85371 5.99684C4.85374 5.86717 4.74856 5.76199 4.61887 5.76199Z" fill="#525F7F"/>
<path d="M7.37476 6.26306H5.6211C5.49141 6.26306 5.38623 6.3682 5.38623 6.49793C5.38623 6.62766 5.49138 6.7328 5.6211 6.7328H7.37476C7.50445 6.7328 7.60963 6.62766 7.60963 6.49793C7.60963 6.3682 7.50448 6.26306 7.37476 6.26306Z" fill="#525F7F"/>
<path d="M7.37476 5.26096H5.6211C5.49141 5.26096 5.38623 5.3661 5.38623 5.49583C5.38623 5.62556 5.49138 5.7307 5.6211 5.7307H7.37476C7.50445 5.7307 7.60963 5.62556 7.60963 5.49583C7.60963 5.3661 7.50448 5.26096 7.37476 5.26096Z" fill="#525F7F"/>
<path d="M6.87372 9.01878H5.6211C5.49141 9.01878 5.38623 9.12393 5.38623 9.25365C5.38623 9.38338 5.49138 9.48853 5.6211 9.48853H6.87372C7.00342 9.48853 7.10859 9.38338 7.10859 9.25365C7.10859 9.12393 7.00342 9.01878 6.87372 9.01878Z" fill="#525F7F"/>
<path d="M7.37476 8.01671H5.6211C5.49141 8.01671 5.38623 8.12185 5.38623 8.25158C5.38623 8.38131 5.49138 8.48645 5.6211 8.48645H7.37476C7.50445 8.48645 7.60963 8.38131 7.60963 8.25158C7.60963 8.12185 7.50448 8.01671 7.37476 8.01671Z" fill="#525F7F"/>
<path d="M9.62947 3.50731H5.6211C5.49141 3.50731 5.38623 3.61245 5.38623 3.74218C5.38623 3.8719 5.49138 3.97705 5.6211 3.97705H9.62944C9.75914 3.97705 9.86432 3.8719 9.86432 3.74218C9.86432 3.61245 9.75917 3.50731 9.62947 3.50731Z" fill="#525F7F"/>
<path d="M8.62737 2.5052H5.6211C5.49141 2.5052 5.38623 2.61035 5.38623 2.74008C5.38623 2.8698 5.49138 2.97495 5.6211 2.97495H8.62737C8.75707 2.97495 8.86225 2.8698 8.86225 2.74008C8.86225 2.61035 8.7571 2.5052 8.62737 2.5052Z" fill="#525F7F"/>
<path d="M4.61887 8.51775C4.48917 8.51775 4.38399 8.62289 4.38399 8.75262C4.38399 9.03753 4.1522 9.26933 3.86729 9.26933C3.58237 9.26933 3.35058 9.03753 3.35058 8.75262C3.35058 8.46771 3.58237 8.23591 3.86729 8.23591C3.99698 8.23591 4.10216 8.13076 4.10216 8.00104C4.10216 7.87131 3.99701 7.76616 3.86729 7.76616C3.32336 7.76616 2.88086 8.20869 2.88086 8.75259C2.88086 9.29649 3.32339 9.73901 3.86729 9.73901C4.41118 9.73901 4.85371 9.29649 4.85371 8.75259C4.85374 8.62289 4.74856 8.51775 4.61887 8.51775Z" fill="#525F7F"/>
<path d="M10.6316 0H2.11384C1.70808 0 1.37793 0.330117 1.37793 0.735908V11.2578C1.37793 11.6636 1.70805 11.9937 2.11384 11.9937H6.37273C6.50242 11.9937 6.6076 11.8886 6.6076 11.7589C6.6076 11.6292 6.50245 11.524 6.37273 11.524H2.11384C1.96706 11.524 1.84765 11.4046 1.84765 11.2578V0.735908C1.84765 0.589131 1.96706 0.469717 2.11384 0.469717H10.6316C10.7784 0.469717 10.8978 0.589131 10.8978 0.735908V8.50213C10.8978 8.63183 11.0029 8.737 11.1326 8.737C11.2623 8.737 11.3675 8.63186 11.3675 8.50213V0.735908C11.3675 0.330117 11.0374 0 10.6316 0Z" fill="#525F7F"/>
<path d="M12.8489 9.52424C12.6306 9.50247 12.4125 9.56435 12.2398 9.69545C12.1022 9.46465 11.8677 9.30091 11.5963 9.27372C11.378 9.25198 11.1598 9.31386 10.9872 9.44493C10.8496 9.21413 10.6151 9.05039 10.3437 9.0232C10.177 9.00656 10.0105 9.03867 9.86424 9.11312V6.12214C9.86424 5.8793 9.76094 5.64651 9.58074 5.48347C9.40071 5.32058 9.1581 5.24107 8.91508 5.26538C8.48152 5.3088 8.14191 5.70082 8.14191 6.15788V9.15642L7.4515 9.84683C7.08461 10.2137 6.93652 10.7343 7.05537 11.2393L7.57953 13.467C7.7919 14.3697 8.58787 15.0001 9.51517 15.0001H11.6335C12.73 15.0001 13.6221 14.108 13.6221 13.0115V10.4168C13.6221 9.95968 13.2825 9.56766 12.8489 9.52424ZM13.1523 13.0115C13.1523 13.8489 12.471 14.5303 11.6336 14.5303H9.5152C8.80695 14.5303 8.19898 14.0488 8.03676 13.3593L7.51261 11.1317C7.43128 10.7861 7.53262 10.4299 7.78364 10.1789L8.14191 9.82064V10.6315C8.14191 10.7612 8.24705 10.8664 8.37678 10.8664C8.50651 10.8664 8.61165 10.7612 8.61165 10.6315V6.15785C8.61165 5.93915 8.76549 5.75241 8.96193 5.73278C9.07475 5.72145 9.18265 5.75666 9.26562 5.83178C9.34756 5.90593 9.39455 6.01178 9.39455 6.12217V10.2558C9.39455 10.3855 9.4997 10.4907 9.62943 10.4907C9.75915 10.4907 9.8643 10.3855 9.8643 10.2558V9.87999C9.8643 9.7696 9.91126 9.66375 9.99324 9.5896C10.0763 9.51448 10.1841 9.47924 10.2969 9.49061C10.4933 9.51027 10.6472 9.697 10.6472 9.9157V10.5062C10.6472 10.6359 10.7523 10.7411 10.8821 10.7411C11.0118 10.7411 11.1169 10.636 11.1169 10.5062V10.1305C11.1169 10.0201 11.1639 9.91421 11.2459 9.84006C11.3289 9.76494 11.4368 9.72973 11.5496 9.74107C11.746 9.76072 11.8998 9.94746 11.8998 10.1662V10.7567C11.8998 10.8864 12.005 10.9916 12.1347 10.9916C12.2644 10.9916 12.3696 10.8865 12.3696 10.7567V10.3809C12.3696 10.2705 12.4166 10.1647 12.4985 10.0905C12.5816 10.0155 12.6893 9.98019 12.8022 9.99158C12.9986 10.0112 13.1525 10.198 13.1525 10.4167V13.0115H13.1523Z" fill="#525F7F"/>
</g>
<defs>
<clipPath id="clip0_199_422">
<rect width="15" height="15" fill="white"/>
</clipPath>
</defs>
</svg>
