<svg width="24" height="25" viewBox="0 0 24 25" fill="none" xmlns="http://www.w3.org/2000/svg">
<g clip-path="url(#clip0_176_212)">
<path d="M20 12C20 13.7765 19.5019 15.5041 18.5598 16.9962C18.4318 17.199 18.2214 17.3086 18.0072 17.3086C17.8803 17.3086 17.752 17.2703 17.6387 17.1899C17.3338 16.9742 17.2519 16.5375 17.4557 16.2146C18.2514 14.9546 18.6719 13.4973 18.6719 12C18.6719 11.3566 18.5959 10.7176 18.4459 10.101C18.3545 9.72501 18.5684 9.34158 18.9235 9.24477C19.2789 9.14809 19.6407 9.3744 19.7322 9.75041C19.9098 10.4816 20 11.2384 20 12ZM15.2099 18.5002C14.0945 19.2155 12.8116 19.5938 11.5 19.5938C7.54545 19.5938 4.32812 16.1872 4.32812 12C4.32812 7.81284 7.54545 4.40625 11.5 4.40625C12.9642 4.40625 14.3721 4.87015 15.5717 5.74782C15.8733 5.96851 16.2869 5.88844 16.4955 5.56902C16.7039 5.24959 16.6284 4.81165 16.3266 4.59082C14.9041 3.55014 13.2351 3 11.5 3C9.2296 3 7.09501 3.93617 5.48958 5.63603C3.88416 7.33589 3 9.59605 3 12C3 14.4039 3.88416 16.6641 5.48958 18.364C7.09501 20.0638 9.2296 21 11.5 21C13.0543 21 14.5752 20.5515 15.8981 19.7029C16.2118 19.5017 16.3121 19.0694 16.1221 18.7372C15.932 18.405 15.5237 18.299 15.2099 18.5002ZM11.5641 14.0388C11.4589 14.0432 11.3607 14.0036 11.2844 13.9267L7.80654 10.4351C7.54039 10.1679 7.12004 10.1797 6.86777 10.4615C6.61538 10.7433 6.62653 11.1884 6.89267 11.4555L10.3699 14.9465C10.6911 15.2698 11.1065 15.4453 11.5467 15.4453C11.5703 15.4453 11.5939 15.4448 11.6175 15.4438C12.0838 15.4239 12.512 15.2102 12.8233 14.842C12.8312 14.8328 12.8388 14.8233 12.8461 14.8136L19.8534 5.58508C20.0833 5.28241 20.0379 4.8398 19.752 4.59659C19.4663 4.35324 19.0481 4.40131 18.8183 4.70398L11.8248 13.9145C11.756 13.9904 11.6639 14.0345 11.5641 14.0388Z" fill="#0C3959"/>
</g>
<defs>
<clipPath id="clip0_176_212">
<rect width="24" height="24" fill="white" transform="translate(0 0.535034)"/>
</clipPath>
</defs>
</svg>
