<svg width="82" height="82" viewBox="0 0 82 82" fill="none" xmlns="http://www.w3.org/2000/svg">
<path d="M35.6315 16.5883C37.0239 16.9981 50.4337 41.5909 50.012 42.9614C49.5903 44.3318 46.933 45.6809 45.6545 44.8527C44.9883 44.3891 41.9823 39.3992 38.1236 32.3224C34.2648 25.2456 31.6984 20.016 31.6695 19.2049C31.6657 17.6816 34.0573 16.1066 35.6196 16.5664L35.6315 16.5883ZM31.0718 29.011C32.1416 29.3258 33.2112 30.8953 37.1538 38.1259C39.9101 43.1807 41.9852 47.5092 42.008 48.3094C42.0118 49.8327 39.6312 51.4016 38.069 50.9419C36.5068 50.4822 26.7371 32.3298 27.1578 30.9314C27.4785 30.1971 28.0533 29.6031 28.7767 29.2584C29.5 28.9137 30.3234 28.8415 31.0958 29.055L31.0718 29.011Z" stroke="#0C3959" stroke-linecap="round" stroke-linejoin="round"/>
<path d="M33.473 58.0954C35.8342 59.0736 38.3942 59.4759 40.9416 59.2692C43.9531 59.3452 46.919 58.5221 49.4606 56.905C51.9406 55.7671 54.0705 53.9855 55.6286 51.7455C57.6584 49.081 58.9384 45.922 59.3358 42.5961C59.6089 39.4106 62.6648 37.9297 64.6443 40.0437C66.9314 42.4603 63.5947 52.4199 58.7683 57.5036C54.7896 61.3321 49.8561 64.0222 44.4829 65.293C35.6664 66.6932 24.2696 62.0018 27.4856 58.2524C28.9512 56.6264 30.025 56.5826 33.4291 58.1194L33.473 58.0954Z" stroke="#0C3959" stroke-linecap="round" stroke-linejoin="round"/>
</svg>
