<svg width="52" height="52" viewBox="0 0 52 52" fill="none" xmlns="http://www.w3.org/2000/svg">
<mask id="mask0_749_574" style="mask-type:alpha" maskUnits="userSpaceOnUse" x="0" y="0" width="52" height="52">
<rect width="52" height="52" fill="#D9D9D9"/>
</mask>
<g mask="url(#mask0_749_574)">
<path d="M23.832 20.5833C24.7459 20.5833 25.5161 20.2701 26.1425 19.6438C26.7688 19.0174 27.082 18.2472 27.082 17.3333C27.082 16.4194 26.7688 15.6493 26.1425 15.0229C25.5161 14.3965 24.7459 14.0833 23.832 14.0833C22.9181 14.0833 22.148 14.3965 21.5216 15.0229C20.8952 15.6493 20.582 16.4194 20.582 17.3333C20.582 18.2472 20.8952 19.0174 21.5216 19.6438C22.148 20.2701 22.9181 20.5833 23.832 20.5833ZM23.8737 29.25C25.082 29.25 26.2466 29.025 27.3674 28.575C28.4883 28.125 29.5029 27.4764 30.4112 26.6291C29.2862 26.0486 28.1744 25.618 27.0758 25.3375C25.9772 25.0569 24.9098 24.9167 23.8737 24.9167C22.5876 24.9167 21.3605 25.0639 20.1925 25.3583C19.0244 25.6528 18.0584 26.0764 17.2945 26.6291C18.1751 27.4764 19.1827 28.125 20.3174 28.575C21.4521 29.025 22.6376 29.25 23.8737 29.25ZM45.882 45.2917L34.4904 33.9C32.8987 35.1944 31.2577 36.1875 29.5675 36.8792C27.8772 37.5708 25.9654 37.9167 23.832 37.9167C19.2987 37.9167 15.457 36.3417 12.307 33.1917C9.15704 30.0417 7.58203 26.2 7.58203 21.6667C7.58203 17.1333 9.15704 13.2916 12.307 10.1417C15.457 6.99167 19.2987 5.41666 23.832 5.41666C28.3654 5.41666 32.207 6.99167 35.357 10.1417C38.507 13.2916 40.082 17.1333 40.082 21.6667C40.082 23.8 39.7362 25.7187 39.0445 27.4229C38.3529 29.1271 37.3598 30.775 36.0654 32.3666L47.4154 43.7167L45.882 45.2917ZM23.832 35.75C27.7209 35.75 31.0404 34.375 33.7904 31.625C36.5404 28.875 37.9154 25.5555 37.9154 21.6667C37.9154 17.7778 36.5404 14.4583 33.7904 11.7083C31.0404 8.95833 27.7209 7.58333 23.832 7.58333C19.9432 7.58333 16.6237 8.95833 13.8737 11.7083C11.1237 14.4583 9.7487 17.7778 9.7487 21.6667C9.7487 25.5555 11.1237 28.875 13.8737 31.625C16.6237 34.375 19.9432 35.75 23.832 35.75Z" fill="#1C1B1F"/>
</g>
</svg>
