<svg width="19" height="20" viewBox="0 0 19 20" fill="none" xmlns="http://www.w3.org/2000/svg">
<path d="M8.97953 9.41602C8.97953 9.09242 8.7303 8.83008 8.42289 8.83008H3.93262C3.6252 8.83008 3.37598 9.09242 3.37598 9.41602C3.37598 9.73961 3.6252 10.002 3.93262 10.002H8.42289C8.7303 10.002 8.97953 9.73961 8.97953 9.41602Z" fill="#525F7F"/>
<path d="M6.16101 11.1738H3.93066C3.62325 11.1738 3.37402 11.4362 3.37402 11.7598C3.37402 12.0834 3.62325 12.3457 3.93066 12.3457H6.16101C6.46843 12.3457 6.71765 12.0834 6.71765 11.7598C6.71765 11.4362 6.46843 11.1738 6.16101 11.1738Z" fill="#525F7F"/>
<path d="M6.16084 13.5137H3.92871C3.6213 13.5137 3.37207 13.776 3.37207 14.0996C3.37207 14.4232 3.6213 14.6855 3.92871 14.6855H6.16084C6.46825 14.6855 6.71748 14.4232 6.71748 14.0996C6.71748 13.776 6.46825 13.5137 6.16084 13.5137Z" fill="#525F7F"/>
<path d="M5.61719 5.89844H6.71577V7.05485C6.71577 7.37844 6.965 7.64078 7.27241 7.64078C7.57983 7.64078 7.82905 7.37844 7.82905 7.05485V5.89844H8.92764C9.23505 5.89844 9.48428 5.6361 9.48428 5.3125C9.48428 4.98891 9.23505 4.72657 8.92764 4.72657H7.82905V3.57016C7.82905 3.24657 7.57983 2.98422 7.27241 2.98422C6.965 2.98422 6.71577 3.24657 6.71577 3.57016V4.72657H5.61719C5.30977 4.72657 5.06055 4.98891 5.06055 5.3125C5.06055 5.6361 5.30974 5.89844 5.61719 5.89844Z" fill="#525F7F"/>
<path d="M13.3918 9.4809V8.24219H17.3272C17.6346 8.24219 17.8839 7.97984 17.8839 7.65625V2.9502C17.8839 1.32918 16.6326 3.90625e-05 15.0798 3.90625e-05C14.6859 3.90625e-05 4.28848 0 3.89679 0C2.36251 0 1.11426 1.31398 1.11426 2.92902V19.4035C1.11426 19.932 1.72834 20.1875 2.07294 19.8088L2.78503 19.0259L3.53728 19.8178C3.75466 20.0466 4.10702 20.0466 4.32448 19.8179L5.03731 19.0678L5.75746 19.8195C5.97444 20.0461 6.3243 20.0461 6.54136 19.8196L7.27282 19.0562L8.00462 19.8196C8.2217 20.0462 8.57165 20.0461 8.78859 19.8194L9.73462 18.8311C10.5945 19.5618 11.6875 20 12.876 20C15.6384 20 17.8858 17.6343 17.8858 14.7266C17.8858 12.002 15.9128 9.75355 13.3918 9.4809ZM16.7706 2.9502V7.07031H13.3917V2.9502C13.3917 1.96961 14.1496 1.17188 15.0812 1.17188C16.0127 1.17188 16.7706 1.96965 16.7706 2.9502ZM8.39619 18.5783L7.66458 17.815C7.44757 17.5886 7.09781 17.5886 6.8808 17.8151L6.14944 18.5784L5.42767 17.8249C5.21006 17.5978 4.85896 17.5984 4.64213 17.8265L3.93097 18.5749L3.17001 17.7739C2.94382 17.5358 2.58527 17.5511 2.37438 17.7829L2.22754 17.9443V2.92902C2.22754 1.96016 2.97637 1.17188 3.89679 1.17188H12.8467C12.4904 1.66672 12.2785 2.28281 12.2785 2.9502V9.49078C9.79678 9.8027 7.86623 12.0316 7.86623 14.7266C7.86623 15.962 8.27206 17.0994 8.95053 17.9992L8.39619 18.5783ZM12.876 18.8281C10.7275 18.8281 8.97952 16.9882 8.97952 14.7266C8.97952 12.465 10.7275 10.625 12.876 10.625C15.0245 10.625 16.7725 12.465 16.7725 14.7266C16.7725 16.9882 15.0246 18.8281 12.876 18.8281Z" fill="#525F7F"/>
<path d="M13.8038 14.3832C13.339 14.0019 12.7224 13.9246 12.6047 13.701C12.5765 13.6473 12.6088 13.5355 12.6913 13.4771C12.8139 13.3904 13.0961 13.4263 13.1877 13.5153C13.4136 13.7346 13.7658 13.7197 13.9743 13.4818C14.1827 13.2439 14.1684 12.8733 13.9425 12.6539C13.7947 12.5104 13.6101 12.4049 13.4098 12.339C13.4049 12.0198 13.158 11.7626 12.8536 11.7626C12.5462 11.7626 12.2969 12.0249 12.2969 12.3485V12.378C11.5857 12.6861 11.2719 13.5868 11.6309 14.2689C11.883 14.748 12.3172 14.9285 12.6661 15.0736C12.8967 15.1694 13.2829 15.3142 13.2553 15.5736C13.2424 15.6954 13.1498 15.8219 13.0303 15.8811C12.8456 15.9725 12.4701 15.9129 12.2423 15.756C11.985 15.5789 11.6401 15.6548 11.4717 15.9256C11.3035 16.1964 11.3756 16.5596 11.6328 16.7368C11.8163 16.8631 12.0476 16.9665 12.2969 17.029V17.0389C12.2969 17.3625 12.5462 17.6249 12.8536 17.6249C13.161 17.6249 13.4102 17.3625 13.4102 17.0389V16.9832C14.4242 16.5738 14.7575 15.1654 13.8038 14.3832Z" fill="#525F7F"/>
</svg>
