<svg width="24" height="24" viewBox="0 0 24 24" fill="none" xmlns="http://www.w3.org/2000/svg">
<mask id="mask0_749_631" style="mask-type:alpha" maskUnits="userSpaceOnUse" x="0" y="0" width="24" height="24">
<rect width="24" height="24" fill="#D9D9D9"/>
</mask>
<g mask="url(#mask0_749_631)">
<path d="M12.0012 21.3269C11.1181 21.3269 10.3717 21.0221 9.76208 20.4123C9.15246 19.8026 8.84766 19.0562 8.84766 18.1731C8.84766 17.3834 9.09958 16.6978 9.60343 16.1164C10.1073 15.5349 10.74 15.1853 11.5015 15.0673V12.5H6.00151V8.90386H3.59766V3.09616H9.40536V8.90386H7.00151V11.5H17.0015V8.85579C16.24 8.73784 15.6073 8.38815 15.1034 7.80674C14.5996 7.22534 14.3477 6.53976 14.3477 5.75001C14.3477 4.86693 14.6526 4.12052 15.2624 3.51079C15.8722 2.90104 16.6186 2.59616 17.5018 2.59616C18.3849 2.59616 19.1313 2.90104 19.7409 3.51079C20.3505 4.12052 20.6554 4.86693 20.6554 5.75001C20.6554 6.53976 20.4034 7.22534 19.8996 7.80674C19.3957 8.38815 18.7631 8.73784 18.0015 8.85579V12.5H12.5015V15.0673C13.263 15.1853 13.8957 15.5349 14.3996 16.1164C14.9034 16.6978 15.1554 17.3834 15.1554 18.1731C15.1554 19.0562 14.8505 19.8026 14.2407 20.4123C13.6309 21.0221 12.8844 21.3269 12.0012 21.3269ZM17.5056 7.90386C18.1016 7.90386 18.6089 7.6932 19.0275 7.27189C19.4461 6.85059 19.6554 6.34194 19.6554 5.74594C19.6554 5.14994 19.4447 4.64264 19.0234 4.22404C18.6021 3.80545 18.0934 3.59616 17.4974 3.59616C16.9014 3.59616 16.3941 3.80682 15.9756 4.22814C15.557 4.64944 15.3477 5.15809 15.3477 5.75409C15.3477 6.35009 15.5583 6.85738 15.9796 7.27596C16.4009 7.69456 16.9096 7.90386 17.5056 7.90386ZM4.59766 7.90386H8.40536V4.09616H4.59766V7.90386ZM12.0056 20.3269C12.6016 20.3269 13.1089 20.1163 13.5275 19.695C13.9461 19.2737 14.1554 18.765 14.1554 18.169C14.1554 17.573 13.9447 17.0657 13.5234 16.6471C13.1021 16.2285 12.5934 16.0192 11.9974 16.0192C11.4014 16.0192 10.8941 16.2299 10.4756 16.6512C10.057 17.0725 9.84766 17.5812 9.84766 18.1772C9.84766 18.7732 10.0583 19.2805 10.4796 19.6991C10.9009 20.1176 11.4096 20.3269 12.0056 20.3269Z" fill="#FF7800"/>
</g>
</svg>
