<svg width="21" height="21" viewBox="0 0 21 21" fill="none" xmlns="http://www.w3.org/2000/svg">
<path d="M9.84391 10.1357L8.43084 11.5598C8.18769 11.8048 8.18925 12.2005 8.43428 12.4437C8.55616 12.5646 8.71531 12.625 8.8745 12.625C9.03525 12.625 9.196 12.5633 9.31816 12.4402L11.1619 10.582C11.4013 10.3408 11.404 9.95247 11.1681 9.70787L4.93825 3.25H13.812C14.5013 3.25 15.062 3.81075 15.062 4.5C15.062 4.84519 15.3418 5.125 15.687 5.125C16.0322 5.125 16.312 4.84519 16.312 4.5C16.312 3.1215 15.1905 2 13.812 2H4.93825C4.43656 2 3.98519 2.29819 3.78841 2.75972C3.59163 3.22122 3.68894 3.75334 4.03747 4.11663L9.84391 10.1357Z" fill="#0C3959"/>
<path d="M15.6868 14.875C15.3416 14.875 15.0618 15.1548 15.0618 15.5C15.0618 16.1892 14.5011 16.75 13.8118 16.75H5.00062C5.00118 16.7494 5.00177 16.7488 5.00249 16.7481L7.03759 14.6894C7.28027 14.4439 7.27796 14.0482 7.03249 13.8055C6.78702 13.5628 6.3913 13.5652 6.14862 13.8106L4.1154 15.8674C3.75746 16.2264 3.65174 16.761 3.84612 17.2292C4.04046 17.6974 4.49365 18 5.00059 18H13.8118C15.1903 18 16.3118 16.8785 16.3118 15.5C16.3118 15.1548 16.032 14.875 15.6868 14.875Z" fill="#0C3959"/>
</svg>
