<svg width="82" height="82" viewBox="0 0 82 82" fill="none" xmlns="http://www.w3.org/2000/svg">
<path d="M14.0938 25.625C16.121 25.625 18.1027 25.0238 19.7884 23.8976C21.474 22.7713 22.7877 21.1704 23.5635 19.2975C24.3393 17.4246 24.5423 15.3636 24.1468 13.3753C23.7513 11.387 22.7751 9.56064 21.3416 8.12715C19.9081 6.69366 18.0817 5.71745 16.0934 5.32195C14.1051 4.92645 12.0442 5.12943 10.1712 5.90523C8.29831 6.68103 6.69748 7.9948 5.57119 9.6804C4.44491 11.366 3.84375 13.3477 3.84375 15.375C3.84681 18.0925 4.92769 20.6979 6.84928 22.6195C8.77087 24.5411 11.3762 25.6219 14.0938 25.625ZM14.0938 10.25C15.1074 10.25 16.0982 10.5506 16.9411 11.1137C17.7839 11.6769 18.4407 12.4773 18.8286 13.4137C19.2165 14.3502 19.318 15.3807 19.1203 16.3748C18.9225 17.369 18.4344 18.2822 17.7177 18.9989C17.0009 19.7157 16.0877 20.2038 15.0936 20.4015C14.0994 20.5993 13.069 20.4978 12.1325 20.1099C11.196 19.722 10.3956 19.0651 9.83247 18.2223C9.26933 17.3795 8.96875 16.3886 8.96875 15.375C8.97028 14.0162 9.51073 12.7136 10.4715 11.7528C11.4323 10.792 12.735 10.2515 14.0938 10.25ZM41 5.125C38.9727 5.125 36.991 5.72615 35.3054 6.85243C33.6198 7.97872 32.306 9.57955 31.5302 11.4525C30.7544 13.3254 30.5515 15.3864 30.947 17.3747C31.3425 19.363 32.3187 21.1894 33.7522 22.6228C35.1856 24.0563 37.012 25.0325 39.0003 25.428C40.9886 25.8235 43.0496 25.6206 44.9225 24.8448C46.7955 24.069 48.3963 22.7552 49.5226 21.0696C50.6489 19.384 51.25 17.4023 51.25 15.375C51.247 12.6575 50.1661 10.0521 48.2445 8.13052C46.3229 6.20894 43.7175 5.12805 41 5.125ZM41 20.5C39.9864 20.5 38.9955 20.1994 38.1527 19.6363C37.3099 19.0731 36.653 18.2727 36.2651 17.3363C35.8772 16.3998 35.7757 15.3693 35.9735 14.3752C36.1712 13.381 36.6593 12.4678 37.3761 11.7511C38.0928 11.0343 39.006 10.5462 40.0002 10.3485C40.9943 10.1507 42.0248 10.2522 42.9613 10.6401C43.8977 11.028 44.6981 11.6849 45.2613 12.5277C45.8244 13.3705 46.125 14.3614 46.125 15.375C46.1235 16.7338 45.583 18.0364 44.6222 18.9972C43.6614 19.958 42.3588 20.4985 41 20.5ZM67.9063 25.625C69.9335 25.625 71.9152 25.0238 73.6008 23.8976C75.2865 22.7713 76.6002 21.1704 77.376 19.2975C78.1518 17.4246 78.3548 15.3636 77.9593 13.3753C77.5638 11.387 76.5876 9.56064 75.1541 8.12715C73.7206 6.69366 71.8942 5.71745 69.9059 5.32195C67.9176 4.92645 65.8567 5.12943 63.9837 5.90523C62.1108 6.68103 60.51 7.9948 59.3837 9.6804C58.2574 11.366 57.6563 13.3477 57.6563 15.375C57.6593 18.0925 58.7402 20.6979 60.6618 22.6195C62.5834 24.5411 65.1887 25.6219 67.9063 25.625ZM67.9063 10.25C68.9199 10.25 69.9108 10.5506 70.7536 11.1137C71.5964 11.6769 72.2532 12.4773 72.6411 13.4137C73.029 14.3502 73.1305 15.3807 72.9328 16.3748C72.735 17.369 72.2469 18.2822 71.5302 18.9989C70.8134 19.7157 69.9002 20.2038 68.9061 20.4015C67.9119 20.5993 66.8815 20.4978 65.945 20.1099C65.0085 19.722 64.2081 19.0651 63.645 18.2223C63.0818 17.3795 62.7813 16.3886 62.7813 15.375C62.7828 14.0162 63.3232 12.7136 64.284 11.7528C65.2448 10.792 66.5475 10.2515 67.9063 10.25ZM14.0938 30.75C12.0665 30.75 10.0848 31.3512 8.39916 32.4774C6.71356 33.6037 5.39979 35.2045 4.62399 37.0775C3.84819 38.9504 3.64521 41.0114 4.04071 42.9997C4.4362 44.988 5.41242 46.8144 6.84591 48.2478C8.2794 49.6813 10.1058 50.6575 12.0941 51.053C14.0824 51.4485 16.1433 51.2456 18.0163 50.4698C19.8892 49.694 21.49 48.3802 22.6163 46.6946C23.7426 45.009 24.3438 43.0273 24.3438 41C24.3407 38.2825 23.2598 35.6771 21.3382 33.7555C19.4166 31.8339 16.8113 30.753 14.0938 30.75ZM14.0938 46.125C13.0801 46.125 12.0893 45.8244 11.2465 45.2613C10.4037 44.6981 9.74677 43.8977 9.35887 42.9613C8.97097 42.0248 8.86948 40.9943 9.06723 40.0002C9.26498 39.006 9.75309 38.0928 10.4698 37.3761C11.1866 36.6593 12.0998 36.1712 13.0939 35.9735C14.0881 35.7757 15.1185 35.8772 16.055 36.2651C16.9915 36.653 17.7919 37.3099 18.355 38.1527C18.9182 38.9955 19.2188 39.9864 19.2188 41C19.2172 42.3588 18.6768 43.6614 17.716 44.6222C16.7552 45.583 15.4525 46.1235 14.0938 46.125ZM41 30.75C38.9727 30.75 36.991 31.3512 35.3054 32.4774C33.6198 33.6037 32.306 35.2045 31.5302 37.0775C30.7544 38.9504 30.5515 41.0114 30.947 42.9997C31.3425 44.988 32.3187 46.8144 33.7522 48.2478C35.1856 49.6813 37.012 50.6575 39.0003 51.053C40.9886 51.4485 43.0496 51.2456 44.9225 50.4698C46.7955 49.694 48.3963 48.3802 49.5226 46.6946C50.6489 45.009 51.25 43.0273 51.25 41C51.247 38.2825 50.1661 35.6771 48.2445 33.7555C46.3229 31.8339 43.7175 30.753 41 30.75ZM41 46.125C39.9864 46.125 38.9955 45.8244 38.1527 45.2613C37.3099 44.6981 36.653 43.8977 36.2651 42.9613C35.8772 42.0248 35.7757 40.9943 35.9735 40.0002C36.1712 39.006 36.6593 38.0928 37.3761 37.3761C38.0928 36.6593 39.006 36.1712 40.0002 35.9735C40.9943 35.7757 42.0248 35.8772 42.9613 36.2651C43.8977 36.653 44.6981 37.3099 45.2613 38.1527C45.8244 38.9955 46.125 39.9864 46.125 41C46.1235 42.3588 45.583 43.6614 44.6222 44.6222C43.6614 45.583 42.3588 46.1235 41 46.125ZM67.9063 30.75C65.879 30.75 63.8973 31.3512 62.2117 32.4774C60.5261 33.6037 59.2123 35.2045 58.4365 37.0775C57.6607 38.9504 57.4577 41.0114 57.8532 42.9997C58.2487 44.988 59.2249 46.8144 60.6584 48.2478C62.0919 49.6813 63.9183 50.6575 65.9066 51.053C67.8949 51.4485 69.9558 51.2456 71.8288 50.4698C73.7017 49.694 75.3025 48.3802 76.4288 46.6946C77.5551 45.009 78.1563 43.0273 78.1563 41C78.1532 38.2825 77.0723 35.6771 75.1507 33.7555C73.2291 31.8339 70.6238 30.753 67.9063 30.75ZM67.9063 46.125C66.8926 46.125 65.9018 45.8244 65.059 45.2613C64.2162 44.6981 63.5593 43.8977 63.1714 42.9613C62.7835 42.0248 62.682 40.9943 62.8797 40.0002C63.0775 39.006 63.5656 38.0928 64.2823 37.3761C64.9991 36.6593 65.9123 36.1712 66.9064 35.9735C67.9006 35.7757 68.931 35.8772 69.8675 36.2651C70.804 36.653 71.6044 37.3099 72.1675 38.1527C72.7307 38.9955 73.0313 39.9864 73.0313 41C73.0297 42.3588 72.4893 43.6614 71.5285 44.6222C70.5677 45.583 69.265 46.1235 67.9063 46.125ZM67.9063 56.375C65.879 56.375 63.8973 56.9762 62.2117 58.1024C60.5261 59.2287 59.2123 60.8296 58.4365 62.7025C57.6607 64.5754 57.4577 66.6364 57.8532 68.6247C58.2487 70.613 59.2249 72.4394 60.6584 73.8728C62.0919 75.3063 63.9183 76.2825 65.9066 76.678C67.8949 77.0735 69.9558 76.8706 71.8288 76.0948C73.7017 75.319 75.3025 74.0052 76.4288 72.3196C77.5551 70.634 78.1563 68.6523 78.1563 66.625C78.1532 63.9075 77.0723 61.3021 75.1507 59.3805C73.2291 57.4589 70.6238 56.378 67.9063 56.375ZM67.9063 71.75C66.8926 71.75 65.9018 71.4494 65.059 70.8863C64.2162 70.3231 63.5593 69.5227 63.1714 68.5863C62.7835 67.6498 62.682 66.6193 62.8797 65.6252C63.0775 64.631 63.5656 63.7178 64.2823 63.0011C64.9991 62.2843 65.9123 61.7962 66.9064 61.5985C67.9006 61.4007 68.931 61.5022 69.8675 61.8901C70.804 62.278 71.6044 62.9349 72.1675 63.7777C72.7307 64.6205 73.0313 65.6114 73.0313 66.625C73.0297 67.9838 72.4893 69.2864 71.5285 70.2472C70.5677 71.208 69.265 71.7485 67.9063 71.75ZM8.96875 65.3437H14.0938V70.4688H8.96875V65.3437ZM24.3438 65.3437H29.4688V70.4688H24.3438V65.3437ZM39.7188 65.3437H44.8438V70.4688H39.7188V65.3437Z" fill="#454547"/>
</svg>
