<svg width="21" height="21" viewBox="0 0 21 21" fill="none" xmlns="http://www.w3.org/2000/svg">
<path d="M9.39941 11.6284C10.3493 11.6284 11.1221 10.8556 11.1221 9.90572C11.1221 8.95584 10.3493 8.18306 9.39941 8.18306C8.44953 8.18306 7.67676 8.95584 7.67676 9.90572C7.67676 10.8556 8.44953 11.6284 9.39941 11.6284ZM9.39941 9.00337C9.89697 9.00337 10.3018 9.40816 10.3018 9.90572C10.3018 10.4033 9.89697 10.8081 9.39941 10.8081C8.90185 10.8081 8.49707 10.4033 8.49707 9.90572C8.49707 9.40816 8.90185 9.00337 9.39941 9.00337Z" fill="#0C3959"/>
<path d="M4.52246 13.1921C3.57258 13.1921 2.7998 13.9649 2.7998 14.9148C2.7998 15.8647 3.57258 16.6375 4.52246 16.6375C5.47234 16.6375 6.24512 15.8647 6.24512 14.9148C6.24512 13.9649 5.4723 13.1921 4.52246 13.1921ZM4.52246 15.8171C4.0249 15.8171 3.62012 15.4124 3.62012 14.9148C3.62012 14.4172 4.0249 14.0125 4.52246 14.0125C5.02002 14.0125 5.4248 14.4172 5.4248 14.9148C5.4248 15.4124 5.01998 15.8171 4.52246 15.8171Z" fill="#0C3959"/>
<path d="M4.52246 8.18306C3.57258 8.18306 2.7998 8.95584 2.7998 9.90572C2.7998 10.8556 3.57258 11.6284 4.52246 11.6284C5.47234 11.6284 6.24512 10.8556 6.24512 9.90572C6.24512 8.95584 5.4723 8.18306 4.52246 8.18306ZM4.52246 10.8081C4.0249 10.8081 3.62012 10.4033 3.62012 9.90572C3.62012 9.40816 4.0249 9.00337 4.52246 9.00337C5.02002 9.00337 5.4248 9.40816 5.4248 9.90572C5.4248 10.4033 5.01998 10.8081 4.52246 10.8081Z" fill="#0C3959"/>
<path d="M18.7988 11.1732V3.19922C18.7988 2.33982 18.0996 1.64062 17.2402 1.64062H15.8713V1.3125C15.8713 0.588779 15.2825 0 14.5588 0C13.8351 0 13.2463 0.588779 13.2463 1.3125V1.64062H10.7119V1.3125C10.7119 0.588779 10.1231 0 9.39939 0C8.67567 0 8.08689 0.588779 8.08689 1.3125V1.64062H5.55249V1.3125C5.55249 0.588779 4.96371 0 4.23999 0C3.51627 0 2.92749 0.588779 2.92749 1.3125V1.64062H1.55859C0.699193 1.64062 0 2.33982 0 3.19922V17.2266C0 18.086 0.699193 18.7852 1.55859 18.7852H11.1632C12.1573 20.1278 13.7524 21 15.5475 21C18.554 21 21 18.554 21 15.5475C21 13.7584 20.1338 12.168 18.7988 11.1732ZM14.0666 1.3125C14.0666 1.0411 14.2874 0.820312 14.5588 0.820312C14.8302 0.820312 15.051 1.0411 15.051 1.3125V2.78906C15.051 3.06046 14.8302 3.28125 14.5588 3.28125C14.2874 3.28125 14.0666 3.06046 14.0666 2.78906V1.3125ZM8.90724 1.3125C8.90724 1.0411 9.12803 0.820312 9.39943 0.820312C9.67083 0.820312 9.89162 1.0411 9.89162 1.3125V2.78906C9.89162 3.06046 9.67083 3.28125 9.39943 3.28125C9.12803 3.28125 8.90724 3.06046 8.90724 2.78906V1.3125ZM3.74784 1.3125C3.74784 1.0411 3.96863 0.820312 4.24003 0.820312C4.51143 0.820312 4.73222 1.0411 4.73222 1.3125V2.78906C4.73222 3.06046 4.51143 3.28125 4.24003 3.28125C3.96863 3.28125 3.74784 3.06046 3.74784 2.78906V1.3125ZM1.55859 17.9648C1.15151 17.9648 0.820312 17.6336 0.820312 17.2266V6.88837H7.55372C7.78025 6.88837 7.96388 6.70474 7.96388 6.47821C7.96388 6.25168 7.78025 6.06806 7.55372 6.06806H0.820312V3.19922C0.820312 2.79214 1.15151 2.46094 1.55859 2.46094H2.92753V2.78906C2.92753 3.51278 3.51631 4.10156 4.24003 4.10156C4.96375 4.10156 5.55253 3.51278 5.55253 2.78906V2.46094H8.08693V2.78906C8.08693 3.51278 8.67571 4.10156 9.39943 4.10156C10.1231 4.10156 10.7119 3.51278 10.7119 2.78906V2.46094H13.2463V2.78906C13.2463 3.51278 13.8351 4.10156 14.5588 4.10156C15.2825 4.10156 15.8713 3.51278 15.8713 2.78906V2.46094H17.2403C17.6473 2.46094 17.9785 2.79214 17.9785 3.19922V6.06806H11.2451C11.0186 6.06806 10.835 6.25168 10.835 6.47821C10.835 6.70474 11.0186 6.88837 11.2451 6.88837H17.9785V10.668C17.3701 10.3636 16.6973 10.1696 15.9863 10.1127C15.9944 10.0445 15.9988 9.97549 15.9988 9.90568C15.9988 8.9558 15.2261 8.18303 14.2762 8.18303C13.3263 8.18303 12.5535 8.9558 12.5535 9.90568C12.5535 10.2341 12.6482 10.5525 12.8203 10.8253C12.7691 10.855 12.7182 10.8853 12.6678 10.9167C12.6671 10.9172 12.6664 10.9177 12.6657 10.9182L11.4869 11.1724C11.3401 11.204 11.2224 11.3134 11.18 11.4574C11.1375 11.6015 11.1772 11.7572 11.2834 11.8633L11.413 11.993C11.0065 12.4643 10.6883 12.9945 10.4663 13.5631C10.1677 13.3278 9.79371 13.1921 9.39943 13.1921C8.44955 13.1921 7.67677 13.9648 7.67677 14.9147C7.67677 15.8646 8.44955 16.6374 9.39943 16.6374C9.6712 16.6374 9.93456 16.5726 10.1708 16.4541C10.2606 16.9877 10.428 17.4953 10.6612 17.9648H1.55859V17.9648ZM13.5694 10.4662C13.4439 10.3078 13.3738 10.1104 13.3738 9.90572C13.3738 9.40816 13.7786 9.00338 14.2761 9.00338C14.7737 9.00338 15.1785 9.40816 15.1785 9.90572C15.1785 9.97516 15.1707 10.0431 15.1555 10.1092C14.6097 10.1483 14.0755 10.2692 13.5694 10.4662ZM9.39943 15.8171C8.90187 15.8171 8.49708 15.4124 8.49708 14.9148C8.49708 14.4172 8.90187 14.0125 9.39943 14.0125C9.73424 14.0125 10.0411 14.1992 10.1968 14.4924C10.1334 14.8173 10.0993 15.1503 10.0957 15.4882C9.92484 15.6952 9.66988 15.8171 9.39943 15.8171ZM15.5475 20.1797C12.9933 20.1797 10.9153 18.1017 10.9153 15.5475C10.9153 14.3106 11.3973 13.1474 12.2723 12.2724C12.3937 12.1509 12.4231 11.9723 12.3604 11.8232L13.5596 11.5645L13.301 12.7639C13.1519 12.7014 12.9735 12.7308 12.8521 12.8521C12.1321 13.5721 11.7356 14.5293 11.7356 15.5475C11.7356 17.6494 13.4456 19.3593 15.5475 19.3593C17.6494 19.3593 19.3594 17.6494 19.3594 15.5475C19.3594 13.4456 17.6494 11.7356 15.5475 11.7356C15.1266 11.7356 14.7115 11.8054 14.318 11.9393L14.4955 11.116C14.5014 11.0889 14.5036 11.0616 14.5039 11.0344C14.844 10.956 15.1939 10.9153 15.5475 10.9153C18.1017 10.9154 20.1797 12.9933 20.1797 15.5475C20.1797 18.1017 18.1017 20.1797 15.5475 20.1797ZM15.5475 12.556C17.197 12.556 18.5391 13.898 18.5391 15.5475C18.5391 17.1971 17.1971 18.5391 15.5475 18.5391C13.8979 18.5391 12.5559 17.1971 12.5559 15.5475C12.5559 14.8869 12.7687 14.2589 13.1617 13.7418L13.2608 13.8409C13.367 13.9471 13.5226 13.9868 13.6667 13.9443C13.8108 13.9019 13.9201 13.7842 13.9518 13.6374L14.1051 12.9264C14.5451 12.6839 15.0408 12.556 15.5475 12.556Z" fill="#0C3959"/>
<path d="M15.2614 15.9056L16.2333 16.4484C16.2966 16.4837 16.3652 16.5005 16.4329 16.5005C16.5767 16.5005 16.7163 16.4247 16.7914 16.2903C16.9019 16.0925 16.8311 15.8426 16.6333 15.7322L15.8716 15.3068V14.0462C15.8716 13.8197 15.688 13.636 15.4614 13.636C15.2349 13.636 15.0513 13.8197 15.0513 14.0462V15.5475C15.0513 15.6961 15.1317 15.8331 15.2614 15.9056Z" fill="#0C3959"/>
<path d="M9.39941 6.88824C9.62594 6.88824 9.80957 6.70461 9.80957 6.47809C9.80957 6.25157 9.62594 6.06793 9.39941 6.06793C9.17289 6.06793 8.98926 6.25157 8.98926 6.47809C8.98926 6.70461 9.17289 6.88824 9.39941 6.88824Z" fill="#0C3959"/>
</svg>
