<svg width="22" height="25" viewBox="0 0 22 25" fill="none" xmlns="http://www.w3.org/2000/svg">
<path d="M6.5372 24.4361H6.52439C4.90644 24.5081 3.32773 23.9123 2.14378 22.783C1.03422 21.5761 0.447807 19.9622 0.517122 18.3071L0.504186 8.33989C0.448086 6.8097 0.957592 5.31383 1.93177 4.15092C2.94265 3.06695 4.3182 2.41478 5.7808 2.32759V1.42966C5.77687 1.18321 5.86952 0.944314 6.03836 0.767885C6.39351 0.415029 6.96137 0.423266 7.30708 0.786421C7.47044 0.958043 7.56155 1.1887 7.56072 1.42898V2.2665L14.4287 2.25689V1.41799C14.4241 1.17154 14.5159 0.934016 14.6839 0.756901C15.0392 0.404731 15.607 0.412283 15.9525 0.775437C16.1154 0.946373 16.2065 1.17635 16.2062 1.41525V2.31318C17.6763 2.38251 19.0658 3.0182 20.0952 4.09325C21.0917 5.239 21.6196 6.73212 21.5695 8.26437L21.5822 18.3503C21.5822 22.091 19.2859 24.4189 15.5774 24.4244L6.5372 24.4361ZM15.7776 17.484C15.2418 17.4997 14.8183 17.9549 14.8302 18.5027C14.8439 19.0505 15.29 19.4844 15.8266 19.47C16.3631 19.4562 16.787 19.0004 16.7737 18.4519C16.7599 17.9082 16.3214 17.4771 15.7894 17.484H15.7776ZM6.26205 17.484C5.72751 17.5114 5.30954 17.9659 5.316 18.513C5.33035 19.0409 5.74917 19.4631 6.26572 19.4707H6.31126C6.56447 19.4597 6.80277 19.3457 6.97304 19.1535C7.14792 18.9585 7.2389 18.6997 7.2247 18.4354C7.2164 17.9013 6.78829 17.4737 6.26572 17.4778L6.26205 17.484ZM11.0258 17.4778C10.4915 17.508 10.0751 17.9618 10.0796 18.5082C10.0939 19.0382 10.5149 19.4604 11.0328 19.4665H11.075C11.6046 19.437 12.0125 18.9764 11.987 18.4354C11.9787 17.9013 11.5508 17.4737 11.0279 17.4778H11.0258ZM6.2563 13.1769C5.72161 13.2051 5.30377 13.6595 5.3101 14.206C5.32316 14.7352 5.74355 15.1588 6.26093 15.1643H6.30663C6.55913 15.1526 6.79644 15.0387 6.96572 14.8471C7.14048 14.6515 7.23075 14.3927 7.21655 14.1284C7.20868 13.595 6.78084 13.1673 6.25853 13.1707L6.2563 13.1769ZM11.021 13.135C10.4859 13.1625 10.0675 13.6169 10.0737 14.1641C10.0882 14.6947 10.5097 15.1176 11.0279 15.1224H11.0702C11.5988 15.0915 12.005 14.6323 11.9814 14.0913C11.973 13.5579 11.5456 13.1309 11.0233 13.1343L11.021 13.135ZM15.787 13.1419C15.255 13.1536 14.8322 13.6025 14.8408 14.1469V14.1606C14.8492 14.6961 15.2787 15.1238 15.8023 15.119H15.8244C16.3574 15.0929 16.769 14.6302 16.7436 14.0858C16.7195 13.5641 16.3024 13.1515 15.7918 13.1446L15.787 13.1419ZM5.78305 4.15641C3.45876 4.39599 2.28072 5.80261 2.28424 8.33783V8.70991L19.7883 8.68588V8.26712C19.7415 5.7374 18.5377 4.35 16.2121 4.14336V5.06532C16.2137 5.56989 15.8145 5.9811 15.3205 5.98247C15.0846 5.98316 14.8579 5.88911 14.6898 5.71955C14.5246 5.54449 14.4332 5.3104 14.4356 5.06738V4.09874L7.56775 4.10904V5.07631C7.56788 5.58156 7.16691 5.9914 6.67216 5.9914C6.43794 5.9914 6.21284 5.89804 6.04555 5.73053C5.87993 5.55548 5.78867 5.3207 5.7912 5.07699V4.15572L5.78305 4.15641Z" fill="#FF7800"/>
</svg>
