<svg width="18" height="18" viewBox="0 0 18 18" fill="none" xmlns="http://www.w3.org/2000/svg">
<path d="M4.86914 8.89453H4.51758C4.12924 8.89453 3.81445 9.20932 3.81445 9.59766C3.81445 9.98599 4.12924 10.3008 4.51758 10.3008H4.86914C5.25748 10.3008 5.57227 9.98599 5.57227 9.59766C5.57227 9.20932 5.25748 8.89453 4.86914 8.89453Z" fill="#525F7F"/>
<path d="M11.7949 6.08203H7.33008C6.94174 6.08203 6.62695 6.39682 6.62695 6.78516C6.62695 7.17349 6.94174 7.48828 7.33008 7.48828H11.7949C12.1833 7.48828 12.498 7.17349 12.498 6.78516C12.498 6.39682 12.1833 6.08203 11.7949 6.08203Z" fill="#525F7F"/>
<path d="M10.666 16.5938H3.81445C3.03905 16.5938 2.4082 15.9629 2.4082 15.1875V2.8125C2.4082 2.03709 3.03905 1.40625 3.81445 1.40625H12.459C13.2344 1.40625 13.8652 2.03709 13.8652 2.8125V6.78516C13.8652 7.17349 14.18 7.48828 14.5684 7.48828C14.9567 7.48828 15.2715 7.17349 15.2715 6.78516V2.8125C15.2715 1.26169 14.0098 0 12.459 0H3.81445C2.26364 0 1.00195 1.26169 1.00195 2.8125V15.1875C1.00195 16.7383 2.26364 18 3.81445 18H10.666C11.0544 18 11.3691 17.6852 11.3691 17.2969C11.3691 16.9085 11.0544 16.5938 10.666 16.5938Z" fill="#525F7F"/>
<path d="M4.86914 11.707H4.51758C4.12924 11.707 3.81445 12.0218 3.81445 12.4102C3.81445 12.7985 4.12924 13.1133 4.51758 13.1133H4.86914C5.25748 13.1133 5.57227 12.7985 5.57227 12.4102C5.57227 12.0218 5.25748 11.707 4.86914 11.707Z" fill="#525F7F"/>
<path d="M11.7949 3.26953H7.33008C6.94174 3.26953 6.62695 3.58432 6.62695 3.97266C6.62695 4.36099 6.94174 4.67578 7.33008 4.67578H11.7949C12.1833 4.67578 12.498 4.36099 12.498 3.97266C12.498 3.58432 12.1833 3.26953 11.7949 3.26953Z" fill="#525F7F"/>
<path d="M15.0169 12.6546H14.3726C14.0575 12.6546 13.8011 12.3937 13.8011 12.073V11.9779C13.8011 11.6632 14.0468 11.4258 14.3726 11.4258H14.9818C15.1609 11.4258 15.3461 11.5457 15.3461 11.7463C15.3461 12.1346 15.6609 12.4494 16.0493 12.4494C16.4376 12.4494 16.7524 12.1346 16.7524 11.7463C16.7524 10.9036 16.1301 10.2004 15.3103 10.0498V9.59766C15.3103 9.20932 14.9955 8.89453 14.6071 8.89453C14.2188 8.89453 13.904 9.20932 13.904 9.59766V10.074C13.556 10.1561 13.2373 10.3296 12.9787 10.5826C12.6022 10.951 12.3949 11.4466 12.3949 11.9779V12.073C12.3949 13.1691 13.282 14.0609 14.3726 14.0609H15.0169C15.3341 14.0609 15.5922 14.3179 15.5922 14.6338V14.9677C15.5922 15.2734 15.3449 15.5039 15.0169 15.5039H13.9698C13.7716 15.5039 13.6221 15.362 13.6221 15.1738C13.6221 14.7855 13.3073 14.4707 12.9189 14.4707C12.5306 14.4707 12.2158 14.7855 12.2158 15.1738C12.2158 15.6448 12.4004 16.0843 12.7355 16.4115C13.0494 16.7179 13.4622 16.8928 13.904 16.9086V17.2969C13.904 17.6852 14.2188 18 14.6071 18C14.9955 18 15.3103 17.6852 15.3103 17.2969V16.8897C16.2775 16.7545 16.9985 15.959 16.9985 14.9677V14.6338C16.9985 13.5425 16.1096 12.6546 15.0169 12.6546Z" fill="#525F7F"/>
<path d="M10.3887 13.1133C10.777 13.1133 11.0918 12.7985 11.0918 12.4102C11.0918 12.0218 10.777 11.707 10.3887 11.707H7.33008C6.94174 11.707 6.62695 12.0218 6.62695 12.4102C6.62695 12.7985 6.94174 13.1133 7.33008 13.1133H10.3887Z" fill="#525F7F"/>
<path d="M4.86914 6.08203H4.51758C4.12924 6.08203 3.81445 6.39682 3.81445 6.78516C3.81445 7.17349 4.12924 7.48828 4.51758 7.48828H4.86914C5.25748 7.48828 5.57227 7.17349 5.57227 6.78516C5.57227 6.39682 5.25748 6.08203 4.86914 6.08203Z" fill="#525F7F"/>
<path d="M12.498 9.59766C12.498 9.20932 12.1833 8.89453 11.7949 8.89453H7.33008C6.94174 8.89453 6.62695 9.20932 6.62695 9.59766C6.62695 9.98599 6.94174 10.3008 7.33008 10.3008H11.7949C12.1833 10.3008 12.498 9.98599 12.498 9.59766Z" fill="#525F7F"/>
<path d="M4.86914 3.26953H4.51758C4.12924 3.26953 3.81445 3.58432 3.81445 3.97266C3.81445 4.36099 4.12924 4.67578 4.51758 4.67578H4.86914C5.25748 4.67578 5.57227 4.36099 5.57227 3.97266C5.57227 3.58432 5.25748 3.26953 4.86914 3.26953Z" fill="#525F7F"/>
</svg>
