<svg width="22" height="22" viewBox="0 0 22 22" fill="none" xmlns="http://www.w3.org/2000/svg">
<path d="M16.2755 12.8334C16.5462 12.8335 16.8143 12.8869 17.0643 12.9906C17.3144 13.0944 17.5416 13.2463 17.733 13.4378C17.9243 13.6294 18.0761 13.8567 18.1796 14.1069C18.283 14.357 18.3363 14.6251 18.3361 14.8959V15.7374C18.3361 16.2626 18.172 16.7747 17.8668 17.2022C16.4496 19.1859 14.136 20.1676 11.001 20.1676C7.86413 20.1676 5.55138 19.1849 4.13788 17.2013C3.83366 16.7741 3.67024 16.2627 3.67038 15.7383V14.895C3.67038 14.3482 3.88758 13.8238 4.2742 13.4372C4.66083 13.0506 5.1852 12.8334 5.73196 12.8334H16.2755ZM11 1.83795C11.6019 1.83795 12.1979 1.9565 12.754 2.18684C13.3101 2.41717 13.8154 2.75478 14.241 3.18038C14.6666 3.60598 15.0042 4.11124 15.2345 4.66732C15.4648 5.22339 15.5834 5.81939 15.5834 6.42128C15.5834 7.02318 15.4648 7.61917 15.2345 8.17525C15.0042 8.73133 14.6666 9.23659 14.241 9.66219C13.8154 10.0878 13.3101 10.4254 12.754 10.6557C12.1979 10.8861 11.6019 11.0046 11 11.0046C9.78447 11.0046 8.61868 10.5217 7.75914 9.66219C6.8996 8.80265 6.41671 7.63686 6.41671 6.42128C6.41671 5.20571 6.8996 4.03992 7.75914 3.18038C8.61868 2.32084 9.78447 1.83795 11 1.83795Z" fill="#0094FF"/>
</svg>
