<svg width="21" height="22" viewBox="0 0 21 22" fill="none" xmlns="http://www.w3.org/2000/svg">
<path d="M15.0879 12.5616C15.3389 12.5617 15.5874 12.6112 15.8192 12.7074C16.051 12.8035 16.2616 12.9444 16.439 13.122C16.6164 13.2995 16.7571 13.5103 16.853 13.7422C16.949 13.9741 16.9983 14.2226 16.9982 14.4736V15.2537C16.9982 15.7406 16.8461 16.2154 16.5631 16.6116C15.2493 18.4506 13.1045 19.3607 10.1982 19.3607C7.2903 19.3607 5.14631 18.4497 3.83595 16.6108C3.55393 16.2148 3.40243 15.7407 3.40256 15.2545V14.4727C3.40256 13.9659 3.60391 13.4798 3.96232 13.1214C4.32073 12.7629 4.80684 12.5616 5.31371 12.5616H15.0879ZM10.1974 2.36848C10.7554 2.36848 11.3079 2.47839 11.8234 2.69191C12.3389 2.90544 12.8073 3.21841 13.2018 3.61296C13.5964 4.0075 13.9093 4.4759 14.1229 4.9914C14.3364 5.5069 14.4463 6.05941 14.4463 6.61738C14.4463 7.17536 14.3364 7.72787 14.1229 8.24337C13.9093 8.75887 13.5964 9.22726 13.2018 9.62181C12.8073 10.0164 12.3389 10.3293 11.8234 10.5429C11.3079 10.7564 10.7554 10.8663 10.1974 10.8663C9.07052 10.8663 7.9898 10.4186 7.19297 9.62181C6.39615 8.82499 5.9485 7.74426 5.9485 6.61738C5.9485 5.49051 6.39615 4.40978 7.19297 3.61296C7.9898 2.81614 9.07052 2.36848 10.1974 2.36848Z" fill="#525F7F"/>
</svg>
