<svg width="8" height="14" viewBox="0 0 8 14" fill="none" xmlns="http://www.w3.org/2000/svg">
<path d="M7.48456 12.542C7.54471 12.6057 7.59173 12.6806 7.62294 12.7624C7.65415 12.8442 7.66894 12.9314 7.66646 13.0189C7.66399 13.1064 7.64429 13.1926 7.60851 13.2725C7.57272 13.3525 7.52154 13.4246 7.4579 13.4847C7.39425 13.5448 7.31938 13.5919 7.23756 13.6231C7.15574 13.6543 7.06858 13.6691 6.98104 13.6666C6.89351 13.6641 6.80732 13.6444 6.72739 13.6086C6.64747 13.5729 6.57538 13.5217 6.51523 13.458L0.848564 7.45804C0.73154 7.33426 0.666335 7.17038 0.666335 7.00004C0.666335 6.8297 0.73154 6.66582 0.848564 6.54204L6.51523 0.54137C6.57498 0.476329 6.64706 0.423808 6.72727 0.386858C6.80749 0.349909 6.89425 0.329266 6.98251 0.326131C7.07078 0.322995 7.15878 0.337428 7.24142 0.368592C7.32406 0.399755 7.39968 0.447028 7.4639 0.507665C7.52811 0.568301 7.57964 0.641092 7.61548 0.72181C7.65132 0.802528 7.67077 0.889564 7.67269 0.977861C7.67462 1.06616 7.65898 1.15396 7.62668 1.23616C7.59439 1.31836 7.54608 1.39333 7.48456 1.4567L2.2499 7.00004L7.48456 12.542Z" fill="#0094FF"/>
</svg>
