<svg width="232" height="232" viewBox="0 0 232 232" fill="none" xmlns="http://www.w3.org/2000/svg">
<path d="M204.45 225.837H156.962C145.362 225.837 135.575 216.413 135.575 204.45V166.025C135.575 163.125 133.4 160.95 130.5 160.95H101.5C98.5996 160.95 96.4246 163.125 96.4246 166.025V204.45C96.4246 216.413 86.9996 225.837 75.0371 225.837H27.5496C15.9496 225.837 6.16211 216.413 6.16211 204.45V82.2875C6.16211 76.125 9.06211 70.6875 14.1371 67.425L106.575 9.0625C112.375 5.4375 119.625 5.4375 125.062 9.0625L217.5 67.7875C222.575 71.05 225.475 76.4875 225.475 82.65V204.45C225.837 216.05 216.05 225.837 204.45 225.837ZM101.5 144.638H130.5C142.462 144.638 151.887 154.062 151.887 166.025V204.45C151.887 207.35 154.062 209.525 156.962 209.525H204.45C207.35 209.525 209.525 207.35 209.525 204.45V82.2875C209.525 81.925 209.162 81.5625 209.162 81.2L116.362 22.8375C116 22.475 115.637 22.475 115.275 22.8375L23.1996 81.2C22.8371 81.5625 22.4746 81.925 22.4746 82.2875V204.45C22.4746 207.35 24.6496 209.525 27.5496 209.525H75.0371C77.9371 209.525 80.1121 207.35 80.1121 204.45V166.025C80.1121 154.425 89.5371 144.638 101.5 144.638Z" fill="#A2A0A2"/>
</svg>
