<svg width="21" height="21" viewBox="0 0 21 21" fill="none" xmlns="http://www.w3.org/2000/svg">
<g clip-path="url(#clip0_8_101)">
<path fill-rule="evenodd" clip-rule="evenodd" d="M1.3125 18.375C1.3125 18.375 0 18.375 0 17.0625C0 15.75 1.3125 11.8125 7.875 11.8125C14.4375 11.8125 15.75 15.75 15.75 17.0625C15.75 18.375 14.4375 18.375 14.4375 18.375H1.3125ZM7.875 10.5C8.91929 10.5 9.92081 10.0852 10.6592 9.34673C11.3977 8.60831 11.8125 7.60679 11.8125 6.5625C11.8125 5.51821 11.3977 4.51669 10.6592 3.77827C9.92081 3.03984 8.91929 2.625 7.875 2.625C6.83071 2.625 5.82919 3.03984 5.09077 3.77827C4.35234 4.51669 3.9375 5.51821 3.9375 6.5625C3.9375 7.60679 4.35234 8.60831 5.09077 9.34673C5.82919 10.0852 6.83071 10.5 7.875 10.5ZM15.9416 6.75412C16.0026 6.69301 16.075 6.64452 16.1547 6.61144C16.2345 6.57836 16.3199 6.56133 16.4062 6.56133C16.4926 6.56133 16.578 6.57836 16.6578 6.61144C16.7375 6.64452 16.8099 6.69301 16.8709 6.75412L18.375 8.25956L19.8791 6.75412C20.0024 6.6309 20.1695 6.56167 20.3438 6.56167C20.518 6.56167 20.6851 6.6309 20.8084 6.75412C20.9316 6.87735 21.0008 7.04448 21.0008 7.21875C21.0008 7.39302 20.9316 7.56015 20.8084 7.68338L19.3029 9.1875L20.8084 10.6916C20.9316 10.8149 21.0008 10.982 21.0008 11.1562C21.0008 11.3305 20.9316 11.4976 20.8084 11.6209C20.6851 11.7441 20.518 11.8133 20.3438 11.8133C20.1695 11.8133 20.0024 11.7441 19.8791 11.6209L18.375 10.1154L16.8709 11.6209C16.7476 11.7441 16.5805 11.8133 16.4062 11.8133C16.232 11.8133 16.0649 11.7441 15.9416 11.6209C15.8184 11.4976 15.7492 11.3305 15.7492 11.1562C15.7492 10.982 15.8184 10.8149 15.9416 10.6916L17.4471 9.1875L15.9416 7.68338C15.8805 7.62242 15.832 7.55 15.7989 7.47027C15.7659 7.39054 15.7488 7.30507 15.7488 7.21875C15.7488 7.13243 15.7659 7.04696 15.7989 6.96723C15.832 6.8875 15.8805 6.81508 15.9416 6.75412Z" fill="#525F7F"/>
</g>
<defs>
<clipPath id="clip0_8_101">
<rect width="21" height="21" fill="white"/>
</clipPath>
</defs>
</svg>
