<svg width="48" height="48" viewBox="0 0 48 48" fill="none" xmlns="http://www.w3.org/2000/svg">
<mask id="mask0_751_744" style="mask-type:alpha" maskUnits="userSpaceOnUse" x="0" y="0" width="48" height="48">
<rect width="48" height="48" fill="#D9D9D9"/>
</mask>
<g mask="url(#mask0_751_744)">
<path d="M20 22.7693C18.35 22.7693 16.9375 22.1818 15.7625 21.0068C14.5875 19.8318 14 18.4193 14 16.7693C14 15.1193 14.5875 13.7068 15.7625 12.5318C16.9375 11.3568 18.35 10.7693 20 10.7693C21.65 10.7693 23.0625 11.3568 24.2375 12.5318C25.4125 13.7068 26 15.1193 26 16.7693C26 18.4193 25.4125 19.8318 24.2375 21.0068C23.0625 22.1818 21.65 22.7693 20 22.7693ZM6 37.2309V33.9385C6 33.018 6.23205 32.2219 6.69615 31.5501C7.16025 30.8783 7.81538 30.3437 8.66155 29.9462C10.2846 29.1565 11.9577 28.5065 13.6807 27.9962C15.4038 27.486 17.5103 27.2308 20 27.2308H20.4693C20.5923 27.2308 20.741 27.2385 20.9154 27.2539C20.7769 27.5975 20.6673 27.9341 20.5865 28.2635C20.5058 28.593 20.4282 28.9155 20.3539 29.2308H20C17.7615 29.2308 15.8096 29.4603 14.1443 29.9193C12.4789 30.3783 10.9692 30.9719 9.6154 31.7001C9.0077 32.0206 8.58653 32.3565 8.3519 32.7078C8.1173 33.0591 8 33.4693 8 33.9385V35.2308H20.6C20.6974 35.5462 20.8167 35.8854 20.9577 36.2482C21.0987 36.611 21.2539 36.9386 21.4231 37.2309H6ZM32.423 38.1924L32.1308 35.8847C31.5769 35.7693 31.0545 35.5751 30.5634 35.302C30.0724 35.029 29.6307 34.6822 29.2384 34.2616L27.0693 35.1232L26.2231 33.6847L28.0616 32.3001C27.841 31.7309 27.7307 31.1437 27.7307 30.5385C27.7307 29.9334 27.841 29.3463 28.0616 28.777L26.2616 27.3155L27.1077 25.877L29.2384 26.777C29.6051 26.3565 30.0404 26.0161 30.5443 25.7558C31.0481 25.4956 31.5769 25.3078 32.1308 25.1924L32.423 22.8847H34.1154L34.3693 25.1924C34.9231 25.3078 35.4519 25.4975 35.9558 25.7616C36.4596 26.0257 36.8949 26.3719 37.2616 26.8001L39.3923 25.877L40.2385 27.3385L38.4385 28.8001C38.659 29.3621 38.7693 29.9474 38.7693 30.5562C38.7693 31.165 38.659 31.7463 38.4385 32.3001L40.277 33.6847L39.4308 35.1232L37.2616 34.2616C36.8693 34.6822 36.4276 35.029 35.9366 35.302C35.4455 35.5751 34.9231 35.7693 34.3693 35.8847L34.1154 38.1924H32.423ZM33.2342 34.1539C34.2294 34.1539 35.0802 33.7996 35.7866 33.0909C36.493 32.3822 36.8461 31.5303 36.8461 30.5351C36.8461 29.54 36.4918 28.6892 35.7832 27.9828C35.0745 27.2764 34.2225 26.9232 33.2274 26.9232C32.2322 26.9232 31.3814 27.2775 30.675 27.9862C29.9686 28.6949 29.6154 29.5468 29.6154 30.5419C29.6154 31.5371 29.9697 32.3879 30.6784 33.0943C31.3871 33.8007 32.239 34.1539 33.2342 34.1539ZM20 20.7693C21.1 20.7693 22.0417 20.3777 22.825 19.5943C23.6083 18.811 24 17.8693 24 16.7693C24 15.6693 23.6083 14.7277 22.825 13.9443C22.0417 13.161 21.1 12.7693 20 12.7693C18.9 12.7693 17.9583 13.161 17.175 13.9443C16.3917 14.7277 16 15.6693 16 16.7693C16 17.8693 16.3917 18.811 17.175 19.5943C17.9583 20.3777 18.9 20.7693 20 20.7693Z" fill="#0C3959"/>
</g>
</svg>
