<svg width="24" height="24" viewBox="0 0 24 24" fill="none" xmlns="http://www.w3.org/2000/svg">
<mask id="mask0_749_619" style="mask-type:alpha" maskUnits="userSpaceOnUse" x="0" y="0" width="24" height="24">
<rect width="24" height="24" fill="#D9D9D9"/>
</mask>
<g mask="url(#mask0_749_619)">
<path d="M10 11.3846C9.175 11.3846 8.46875 11.0909 7.88125 10.5034C7.29375 9.91589 7 9.20964 7 8.38464C7 7.55962 7.29375 6.85336 7.88125 6.26586C8.46875 5.67836 9.175 5.38461 10 5.38461C10.825 5.38461 11.5313 5.67836 12.1188 6.26586C12.7063 6.85336 13 7.55962 13 8.38464C13 9.20964 12.7063 9.91589 12.1188 10.5034C11.5313 11.0909 10.825 11.3846 10 11.3846ZM3 18.6154V16.9692C3 16.509 3.11603 16.1109 3.34808 15.775C3.58013 15.4391 3.90769 15.1718 4.33078 14.9731C5.14231 14.5782 5.97884 14.2532 6.84037 13.9981C7.70192 13.743 8.75513 13.6154 10 13.6154H10.2346C10.2962 13.6154 10.3705 13.6192 10.4577 13.6269C10.3885 13.7987 10.3337 13.967 10.2933 14.1317C10.2529 14.2965 10.2141 14.4577 10.1769 14.6154H10C8.88077 14.6154 7.90481 14.7301 7.07213 14.9596C6.23943 15.1891 5.48462 15.4859 4.8077 15.85C4.50385 16.0103 4.29327 16.1782 4.17595 16.3539C4.05865 16.5295 4 16.7346 4 16.9692V17.6154H10.3C10.3487 17.7731 10.4083 17.9426 10.4788 18.1241C10.5494 18.3055 10.6269 18.4692 10.7116 18.6154H3ZM16.2115 19.0962L16.0654 17.9423C15.7885 17.8846 15.5272 17.7875 15.2817 17.651C15.0362 17.5145 14.8154 17.3411 14.6192 17.1308L13.5346 17.5616L13.1115 16.8423L14.0308 16.15C13.9205 15.8654 13.8654 15.5718 13.8654 15.2692C13.8654 14.9667 13.9205 14.6731 14.0308 14.3885L13.1308 13.6577L13.5539 12.9385L14.6192 13.3885C14.8026 13.1782 15.0202 13.008 15.2721 12.8779C15.524 12.7478 15.7885 12.6539 16.0654 12.5962L16.2115 11.4423H17.0577L17.1846 12.5962C17.4615 12.6539 17.726 12.7487 17.9779 12.8808C18.2298 13.0128 18.4474 13.1859 18.6308 13.4L19.6961 12.9385L20.1193 13.6692L19.2193 14.4C19.3295 14.681 19.3846 14.9737 19.3846 15.2781C19.3846 15.5824 19.3295 15.8731 19.2193 16.15L20.1385 16.8423L19.7154 17.5616L18.6308 17.1308C18.4346 17.3411 18.2138 17.5145 17.9683 17.651C17.7228 17.7875 17.4615 17.8846 17.1846 17.9423L17.0577 19.0962H16.2115ZM16.6171 17.0769C17.1147 17.0769 17.5401 16.8998 17.8933 16.5454C18.2465 16.1911 18.4231 15.7651 18.4231 15.2675C18.4231 14.77 18.2459 14.3446 17.8916 13.9914C17.5372 13.6382 17.1113 13.4616 16.6137 13.4616C16.1161 13.4616 15.6907 13.6387 15.3375 13.9931C14.9843 14.3474 14.8077 14.7734 14.8077 15.2709C14.8077 15.7685 14.9849 16.1939 15.3392 16.5471C15.6936 16.9003 16.1195 17.0769 16.6171 17.0769ZM10 10.3846C10.55 10.3846 11.0208 10.1888 11.4125 9.79714C11.8042 9.40547 12 8.93464 12 8.38464C12 7.83464 11.8042 7.36381 11.4125 6.97214C11.0208 6.58047 10.55 6.38464 10 6.38464C9.45 6.38464 8.97917 6.58047 8.5875 6.97214C8.19583 7.36381 8 7.83464 8 8.38464C8 8.93464 8.19583 9.40547 8.5875 9.79714C8.97917 10.1888 9.45 10.3846 10 10.3846Z" fill="#FF7800"/>
</g>
</svg>
