<svg width="25" height="24" viewBox="0 0 25 24" fill="none" xmlns="http://www.w3.org/2000/svg">
<g clip-path="url(#clip0_13_341)">
<path fill-rule="evenodd" clip-rule="evenodd" d="M11.4286 2C10.1025 2 8.83074 2.52678 7.89305 3.46447C6.95537 4.40215 6.42859 5.67392 6.42859 7C6.42859 8.32608 6.95537 9.59785 7.89305 10.5355C8.83074 11.4732 10.1025 12 11.4286 12C12.7547 12 14.0264 11.4732 14.9641 10.5355C15.9018 9.59785 16.4286 8.32608 16.4286 7C16.4286 5.67392 15.9018 4.40215 14.9641 3.46447C14.0264 2.52678 12.7547 2 11.4286 2ZM11.4286 13C9.03359 13 6.85359 13.694 5.25059 14.671C4.45059 15.161 3.76659 15.736 3.27259 16.361C2.78659 16.977 2.42859 17.713 2.42859 18.5C2.42859 19.345 2.83959 20.011 3.43159 20.486C3.99159 20.936 4.73059 21.234 5.51559 21.442C7.09359 21.859 9.19959 22 11.4286 22C11.6586 22 11.8886 21.998 12.1136 21.995C12.2811 21.9927 12.4453 21.9484 12.5912 21.8661C12.7371 21.7838 12.8599 21.6662 12.9485 21.524C13.0371 21.3819 13.0886 21.2198 13.0982 21.0525C13.1078 20.8853 13.0753 20.7184 13.0036 20.567C12.6235 19.7647 12.4271 18.8878 12.4286 18C12.4286 16.748 12.8116 15.588 13.4656 14.627C13.5628 14.4842 13.6214 14.3186 13.6355 14.1465C13.6497 13.9743 13.6191 13.8014 13.5466 13.6446C13.4741 13.4878 13.3622 13.3524 13.2218 13.2517C13.0814 13.151 12.9174 13.0884 12.7456 13.07C12.3156 13.024 11.8756 13 11.4286 13ZM22.1366 16.068C22.3187 15.8794 22.4195 15.6268 22.4173 15.3646C22.415 15.1024 22.3098 14.8516 22.1244 14.6662C21.939 14.4808 21.6882 14.3756 21.426 14.3733C21.1638 14.371 20.9112 14.4718 20.7226 14.654L17.5406 17.836L16.1266 16.422C15.938 16.2398 15.6854 16.139 15.4232 16.1413C15.161 16.1436 14.9102 16.2488 14.7248 16.4342C14.5394 16.6196 14.4342 16.8704 14.4319 17.1326C14.4296 17.3948 14.5304 17.6474 14.7126 17.836L16.7626 19.886C16.8647 19.9882 16.986 20.0693 17.1195 20.1246C17.253 20.1799 17.3961 20.2084 17.5406 20.2084C17.6851 20.2084 17.8282 20.1799 17.9617 20.1246C18.0952 20.0693 18.2164 19.9882 18.3186 19.886L22.1366 16.068Z" fill="#0094FF"/>
</g>
<defs>
<clipPath id="clip0_13_341">
<rect width="24" height="24" fill="white" transform="translate(0.428589)"/>
</clipPath>
</defs>
</svg>
