<svg width="22" height="18" viewBox="0 0 22 18" fill="none" xmlns="http://www.w3.org/2000/svg">
<path d="M12.2894 17.2019C11.9507 16.8696 11.9154 16.3506 12.2062 15.9806L12.2894 15.8852L18.3758 9.99715H1.54198C1.00493 9.98891 0.576818 9.56466 0.586085 9.04979C0.594237 8.59122 0.950097 8.20678 1.42502 8.14363L1.54198 8.13676H20.6957C21.0855 8.13813 21.4354 8.36468 21.5808 8.71135C21.7089 9.01684 21.6619 9.36421 21.4566 9.62782L21.3712 9.7205L13.6459 17.1998C13.279 17.5582 12.679 17.563 12.3051 17.2115C12.3012 17.2081 12.297 17.2039 12.2929 17.1998L12.2894 17.2019ZM16.6507 6.4576L16.5557 6.3766L12.2894 2.24804C11.9154 1.88282 11.9154 1.29793 12.2894 0.932031C12.625 0.601829 13.1661 0.564758 13.5477 0.84622L13.6471 0.929972L17.9078 5.05373C18.281 5.41963 18.281 6.00452 17.9078 6.3711C17.5727 6.70062 17.0313 6.73838 16.6507 6.4576Z" fill="black"/>
</svg>
