<svg width="20" height="20" viewBox="0 0 20 20" fill="none" xmlns="http://www.w3.org/2000/svg">
<g clip-path="url(#clip0_185_492)">
<path d="M14.1406 17.0703H15.3125V18.2422H14.1406V17.0703Z" fill="#0C3959"/>
<path d="M14.1406 13.5547H15.3125V15.8984H14.1406V13.5547Z" fill="#0C3959"/>
<path d="M19.7502 17.3387L16.2346 11.4793C16.0016 11.0909 15.6263 10.8116 15.1993 10.6912C15.2223 10.4487 15.2344 10.2046 15.2344 9.96094C15.2344 7.59453 14.1496 5.4768 12.4513 4.07863L13.4744 2.61746L12.5145 1.94531L11.4921 3.40551C10.5145 2.82543 9.39699 2.4573 8.20312 2.36605V1.17188H9.375V0C8.93676 0 6.24281 0 5.85938 0V1.17188H7.03125V2.36605C5.83738 2.4573 4.71992 2.82543 3.7423 3.40551L2.71988 1.94531L1.75996 2.61746L2.78305 4.07863C1.08477 5.4768 0 7.59453 0 9.96094C0 14.1611 3.41707 17.5781 7.61719 17.5781C8.33719 17.5781 9.05301 17.4755 9.74004 17.2768L9.70293 17.3386C9.53949 17.611 9.45312 17.9234 9.45312 18.2422C9.45312 19.2114 10.2417 20 11.2109 20H18.2422C19.2114 20 20 19.2114 20 18.2422C20 17.9234 19.9136 17.611 19.7502 17.3387ZM10.7021 15.6216C9.76227 16.1349 8.69551 16.4062 7.61719 16.4062C4.06324 16.4062 1.17188 13.5149 1.17188 9.96094C1.17188 6.40699 4.06324 3.51562 7.61719 3.51562C11.1711 3.51562 14.0625 6.40699 14.0625 9.96094C14.0625 10.2348 14.0452 10.5091 14.0109 10.7796C13.6862 10.925 13.4061 11.1666 13.2185 11.4793L10.7169 15.6487L10.7021 15.6216ZM18.2422 18.8281H11.2109C10.8879 18.8281 10.625 18.5653 10.625 18.2422C10.625 18.1358 10.6536 18.0318 10.7078 17.9416L14.2234 12.0822C14.3306 11.9036 14.5187 11.7969 14.7266 11.7969C14.9344 11.7969 15.1225 11.9036 15.2297 12.0822L18.7454 17.9416C18.7995 18.0319 18.8281 18.1358 18.8281 18.2422C18.8281 18.5653 18.5653 18.8281 18.2422 18.8281Z" fill="#0C3959"/>
<path d="M8.20324 5.85965L7.03137 5.8591L7.0293 10.5469H11.7189V9.375H8.20168L8.20324 5.85965Z" fill="#0C3959"/>
</g>
<defs>
<clipPath id="clip0_185_492">
<rect width="20" height="20" fill="white"/>
</clipPath>
</defs>
</svg>
