<svg width="48" height="48" viewBox="0 0 48 48" fill="none" xmlns="http://www.w3.org/2000/svg">
<mask id="mask0_752_771" style="mask-type:alpha" maskUnits="userSpaceOnUse" x="0" y="0" width="48" height="48">
<rect width="48" height="48" fill="#D9D9D9"/>
</mask>
<g mask="url(#mask0_752_771)">
<path d="M39.35 40.6731L40.4423 39.5808L36.7693 35.9077V30.4616H35.2307V36.5539L39.35 40.6731ZM11.2308 40C10.3359 40 9.5737 39.6853 8.9442 39.0558C8.31473 38.4263 8 37.6641 8 36.7693V11.2307C8 10.3359 8.31473 9.5737 8.9442 8.9442C9.5737 8.31473 10.3359 8 11.2308 8H36.7693C37.6641 8 38.4263 8.31473 39.0558 8.9442C39.6853 9.5737 40 10.3359 40 11.2307V23.1308C39.6487 23.0103 39.3128 22.9122 38.9923 22.8366C38.6718 22.7609 38.341 22.6859 38 22.6116V11.2307C38 10.9231 37.8718 10.641 37.6154 10.3846C37.359 10.1282 37.0769 10 36.7693 10H11.2308C10.9231 10 10.641 10.1282 10.3846 10.3846C10.1282 10.641 10 10.9231 10 11.2307V36.7693C10 37.0769 10.1282 37.359 10.3846 37.6154C10.641 37.8718 10.9231 38 11.2308 38H22.5615C22.6102 38.3744 22.6724 38.7218 22.7481 39.0423C22.8237 39.3628 22.9218 39.6821 23.0423 40H11.2308ZM10 38V10V22.6116V22.4616V38ZM15 32.5385H22.9193C22.9936 32.1975 23.0942 31.8667 23.2212 31.5462C23.3481 31.2257 23.4808 30.8898 23.6193 30.5385H15V32.5385ZM15 25H28.1616C28.818 24.5385 29.4647 24.1474 30.1019 23.8269C30.7391 23.5064 31.4231 23.2551 32.1539 23.0731V23H15V25ZM15 17.4616H33V15.4616H15V17.4616ZM36 44.2308C33.7718 44.2308 31.8814 43.4545 30.3289 41.902C28.7763 40.3494 28 38.459 28 36.2308C28 34.0026 28.7763 32.1122 30.3289 30.5596C31.8814 29.007 33.7718 28.2308 36 28.2308C38.2282 28.2308 40.1186 29.007 41.6712 30.5596C43.2237 32.1122 44 34.0026 44 36.2308C44 38.459 43.2237 40.3494 41.6712 41.902C40.1186 43.4545 38.2282 44.2308 36 44.2308Z" fill="#0C3959"/>
</g>
</svg>
