<svg width="19" height="19" viewBox="0 0 19 19" fill="none" xmlns="http://www.w3.org/2000/svg">
<g clip-path="url(#clip0_197_257)">
<path d="M6.40322 14.5432C6.3984 14.5195 6.39135 14.4961 6.38207 14.4735C6.37279 14.4512 6.36129 14.4297 6.34793 14.4096C6.33457 14.3892 6.31898 14.3703 6.30191 14.3532C6.28484 14.3362 6.26592 14.3206 6.24551 14.3072C6.22547 14.2939 6.20395 14.2824 6.18131 14.2731C6.15904 14.2638 6.13566 14.2564 6.11191 14.2519C6.06404 14.2423 6.01469 14.2423 5.96719 14.2519C5.94344 14.2564 5.92006 14.2638 5.89742 14.2731C5.87516 14.2824 5.85363 14.2939 5.83359 14.3072C5.81318 14.3206 5.79426 14.3362 5.77719 14.3532C5.76012 14.3703 5.74453 14.3892 5.73117 14.4096C5.71744 14.4297 5.70631 14.4512 5.69703 14.4735C5.68775 14.4961 5.68033 14.5195 5.67588 14.5432C5.67105 14.567 5.66846 14.5915 5.66846 14.6156C5.66846 14.6397 5.67105 14.6642 5.67588 14.688C5.68033 14.7117 5.68775 14.7351 5.69703 14.7574C5.70631 14.78 5.71744 14.8015 5.73117 14.8216C5.74453 14.842 5.76012 14.8609 5.77719 14.878C5.79426 14.895 5.81318 14.9106 5.83359 14.924C5.85363 14.9374 5.87516 14.9489 5.89742 14.9582C5.92006 14.9674 5.94344 14.9749 5.96719 14.9793C5.99094 14.9841 6.01543 14.9867 6.03955 14.9867C6.06367 14.9867 6.08816 14.9841 6.11191 14.9793C6.13566 14.9749 6.15904 14.9674 6.18131 14.9582C6.20395 14.9489 6.22547 14.9373 6.24551 14.924C6.26592 14.9106 6.28484 14.895 6.30191 14.878C6.31898 14.8609 6.33457 14.842 6.34793 14.8216C6.36129 14.8015 6.37279 14.78 6.38207 14.7574C6.39135 14.7351 6.3984 14.7117 6.40322 14.688C6.40805 14.6642 6.41064 14.6397 6.41064 14.6156C6.41064 14.5915 6.40805 14.567 6.40322 14.5432Z" fill="#525F7F"/>
<path d="M17.0701 14.6575C17.0686 14.6538 17.0671 14.6501 17.0656 14.6465C16.724 13.8473 15.923 13.5519 14.975 13.8757L12.3896 14.5906C12.2402 14.138 11.8673 13.7528 11.3401 13.5571C11.3369 13.5559 11.3336 13.5548 11.3303 13.5536L8.48844 12.5891C8.2519 12.2833 7.51097 11.501 6.12371 11.501C5.15423 11.501 4.2966 12.1661 3.80594 12.891H0.371094C0.166139 12.891 0 13.0572 0 13.2621V17.9407C0 18.1457 0.166139 18.3118 0.371094 18.3118H2.57751C2.78246 18.3118 2.9486 18.1457 2.9486 17.9407V17.6203H3.98332C4.18828 17.6203 4.35441 17.4542 4.35441 17.2492V17.1424C4.95759 17.1951 5.15598 17.3095 5.70995 17.6289C6.13596 17.8746 6.77985 18.2459 7.93937 18.7672C7.94475 18.7696 7.9502 18.7719 7.95566 18.7741C8.1782 18.8616 8.61323 18.9991 9.14958 18.9991C9.5229 18.9991 9.94539 18.9325 10.379 18.7359L16.0936 16.6898C16.1037 16.6862 16.1137 16.6821 16.1235 16.6776C16.6697 16.4263 17.4835 15.7182 17.0701 14.6575ZM2.20641 17.5696H0.742188V13.6332H2.20641V17.5696ZM3.61223 16.8781H2.9486V13.6332H3.61223V16.8781ZM15.827 15.9969L10.1151 18.042C10.11 18.0438 10.1032 18.0465 10.0983 18.0485C10.0933 18.0505 10.0883 18.0527 10.0834 18.0549C9.28785 18.4205 8.53167 18.2017 8.23531 18.0864C7.11528 17.5825 6.51748 17.2377 6.0807 16.9859C5.47345 16.6357 5.18084 16.4669 4.35441 16.3987V13.4098C4.70617 12.8333 5.38832 12.2432 6.12375 12.2432C7.38495 12.2432 7.91936 13.0635 7.94037 13.0966C7.98568 13.1703 8.05533 13.2258 8.13723 13.2536L11.0865 14.2546C11.5575 14.4314 11.8065 14.8348 11.6921 15.237C11.6392 15.4228 11.5172 15.5769 11.3485 15.6709C11.1813 15.7641 10.9879 15.7871 10.8037 15.7361L7.47891 14.6825C7.28342 14.6206 7.07494 14.7288 7.01304 14.9242C6.95111 15.1195 7.05932 15.3281 7.2547 15.39L10.5852 16.4455C10.5888 16.4466 10.5923 16.4476 10.5958 16.4487C10.7288 16.4865 10.8642 16.5052 10.9987 16.5052C11.2451 16.5052 11.4887 16.4424 11.7098 16.3192C12.0517 16.1287 12.2989 15.8165 12.4059 15.44C12.4145 15.41 12.422 15.3799 12.4286 15.3498L15.2149 14.578C15.6173 14.4405 16.1455 14.391 16.3807 14.9327C16.6242 15.5686 15.9915 15.9184 15.827 15.9969Z" fill="#525F7F"/>
<path d="M13.3245 4.88148C13.3197 4.85773 13.3126 4.83435 13.303 4.81171C13.2937 4.78944 13.2826 4.76792 13.2688 4.74788C13.2555 4.72747 13.2399 4.70855 13.2228 4.69148C13.2057 4.67441 13.1868 4.65882 13.1664 4.64546C13.1464 4.6321 13.1248 4.6206 13.1026 4.61132C13.0799 4.60204 13.0566 4.59462 13.0332 4.59017C12.9853 4.58052 12.936 4.58052 12.8881 4.59017C12.8643 4.59462 12.841 4.60204 12.8187 4.61132C12.7961 4.6206 12.7745 4.6321 12.7545 4.64546C12.7341 4.65882 12.7152 4.67441 12.6981 4.69148C12.681 4.70855 12.6654 4.72747 12.6521 4.74788C12.6387 4.76792 12.6272 4.78944 12.6179 4.81171C12.6087 4.83435 12.6012 4.85773 12.5968 4.88148C12.592 4.90523 12.5894 4.92972 12.5894 4.95384C12.5894 4.97796 12.592 5.00245 12.5968 5.0262C12.6012 5.04995 12.6087 5.07333 12.6179 5.0956C12.6272 5.11823 12.6387 5.13976 12.6521 5.1598C12.6654 5.18021 12.681 5.19913 12.6981 5.2162C12.7152 5.23327 12.7341 5.24886 12.7545 5.26222C12.7745 5.27558 12.7961 5.28708 12.8187 5.29636C12.841 5.30564 12.8643 5.31269 12.8881 5.31751C12.9118 5.32234 12.9363 5.32493 12.9604 5.32493C12.9846 5.32493 13.0091 5.32234 13.0332 5.31751C13.0566 5.31269 13.0799 5.30564 13.1026 5.29636C13.1248 5.28708 13.1464 5.27558 13.1664 5.26222C13.1868 5.24886 13.2057 5.23327 13.2228 5.2162C13.2399 5.19913 13.2555 5.18021 13.2688 5.1598C13.2826 5.13976 13.2937 5.11823 13.303 5.0956C13.3126 5.07333 13.3197 5.04995 13.3245 5.0262C13.3293 5.00245 13.3315 4.97796 13.3315 4.95384C13.3315 4.92972 13.3293 4.90523 13.3245 4.88148Z" fill="#525F7F"/>
<path d="M18.6287 1.25768H16.4223C16.2173 1.25768 16.0512 1.42382 16.0512 1.62877V1.94918H15.0164C14.8115 1.94918 14.6453 2.11532 14.6453 2.32027V2.42707C14.0422 2.37441 13.8438 2.26004 13.2898 1.9406C12.8638 1.69494 12.2199 1.32366 11.0604 0.802312C11.055 0.799862 11.0496 0.797599 11.0441 0.795446C10.6666 0.646935 9.6774 0.354735 8.62086 0.833558L7.12758 1.36823L5.86887 0.109554C5.72395 -0.0353583 5.48898 -0.0353583 5.34406 0.109554L1.21164 4.24194C1.07797 4.37565 1.05233 4.60747 1.21164 4.76678L8.27307 11.8282C8.38607 11.9412 8.65066 11.9754 8.79791 11.8282L12.5706 8.05552C12.6687 8.06398 12.7705 8.06855 12.876 8.06855C13.8455 8.06855 14.7031 7.40348 15.1937 6.67858H18.6287C18.8336 6.67858 18.9998 6.51244 18.9998 6.30749V1.62877C18.9998 1.42382 18.8336 1.25768 18.6287 1.25768ZM5.60643 0.896755L6.45222 1.74255C6.20081 1.89804 5.91013 1.98124 5.60643 1.98124C5.30269 1.98124 5.01205 1.89808 4.76063 1.74255L5.60643 0.896755ZM2.84467 5.35018L1.99888 4.50434L2.84467 3.65855C3.00016 3.90996 3.08336 4.20064 3.08336 4.50434C3.08336 4.80805 3.0002 5.09872 2.84467 5.35018ZM8.53551 11.041L7.68986 10.1953C8.20616 9.8767 8.86478 9.8767 9.38112 10.1953L8.53551 11.041ZM9.91579 9.66073C9.09575 9.06586 7.97527 9.06586 7.15522 9.66073L3.37931 5.88477C3.6691 5.48622 3.82555 5.00747 3.82555 4.50434C3.82555 4.00118 3.66913 3.52247 3.37931 3.12391L4.22603 2.27722C4.62459 2.56701 5.1033 2.72346 5.60647 2.72346C6.10963 2.72346 6.58834 2.56701 6.9869 2.27722L7.78954 3.07986C7.61635 3.10543 7.44746 3.16251 7.28997 3.25027C7.02397 3.39848 6.81527 3.62043 6.68531 3.88896C6.26672 3.96648 5.87918 4.16913 5.57518 4.4731C4.75043 5.29789 4.75043 6.63988 5.57522 7.46467C5.98758 7.87703 6.52926 8.08325 7.07099 8.08325C7.61267 8.08325 8.15439 7.87707 8.56679 7.46467C8.83509 7.19637 9.02305 6.86661 9.1172 6.50725L10.3702 6.93248C10.2291 7.58591 10.3736 8.27332 10.7633 8.81326L9.91579 9.66073ZM7.65962 6.01239C7.66288 6.01358 7.66615 6.01477 7.66945 6.01588L8.41149 6.26774C8.35545 6.52064 8.22865 6.75317 8.04199 6.93987C7.50658 7.47521 6.6354 7.47528 6.10006 6.93987C5.56464 6.40449 5.56464 5.53335 6.10006 4.99793C6.2292 4.86872 6.38161 4.76775 6.54767 4.69928C6.61617 5.26935 7.02664 5.77749 7.65962 6.01239ZM11.298 8.27851C11.1547 8.0451 11.0737 7.77869 11.0609 7.50679C11.2386 7.6353 11.4559 7.76121 11.7153 7.86115L11.298 8.27851ZM14.6453 6.15953C14.2936 6.73614 13.6114 7.32629 12.876 7.32629C12.7384 7.32629 12.6094 7.31649 12.4889 7.29905C12.4884 7.29898 12.4879 7.2989 12.4874 7.29883C11.686 7.18242 11.2549 6.72693 11.1128 6.54658C11.1053 6.53545 11.073 6.49326 11.0682 6.48624C11.025 6.40898 10.9541 6.34686 10.8637 6.31617L7.91322 5.31477C7.44238 5.13806 7.19348 4.73487 7.30756 4.33275C7.30763 4.33249 7.30771 4.33223 7.30778 4.33197C7.30789 4.33167 7.30797 4.33134 7.30804 4.33104C7.36107 4.14587 7.48286 3.99227 7.65119 3.8985C7.81841 3.80531 8.01171 3.78219 8.19607 3.83329L11.5208 4.88687C11.7162 4.94888 11.9248 4.84059 11.9867 4.64521C12.0486 4.44983 11.9404 4.24127 11.745 4.17934L9.10079 3.34141L9.07771 3.31833C9.07749 3.3181 9.07727 3.31785 9.07701 3.31762L7.70804 1.94866L8.88471 1.52732C8.88868 1.52587 8.89358 1.52405 8.89751 1.52246C8.89851 1.52205 8.90044 1.52131 8.90141 1.5209C8.90645 1.51886 8.91143 1.5167 8.91636 1.51444C9.71184 1.14884 10.468 1.36767 10.7644 1.48293C11.8844 1.98692 12.4823 2.33163 12.9191 2.58349C13.5263 2.93369 13.8189 3.10243 14.6453 3.17067V6.15953ZM16.0512 5.93632H15.3875V2.69136H16.0512V5.93632ZM18.2576 5.93632H16.7933V1.99987H18.2576V5.93632Z" fill="#525F7F"/>
</g>
<defs>
<clipPath id="clip0_197_257">
<rect width="19" height="19" fill="white"/>
</clipPath>
</defs>
</svg>
