<svg width="48" height="48" viewBox="0 0 48 48" fill="none" xmlns="http://www.w3.org/2000/svg">
<mask id="mask0_759_922" style="mask-type:alpha" maskUnits="userSpaceOnUse" x="0" y="0" width="48" height="48">
<rect width="48" height="48" fill="#D9D9D9"/>
</mask>
<g mask="url(#mask0_759_922)">
<path d="M35.1 22.5769L29.423 16.9L30.85 15.523L35.1 19.773L43.6 11.273L45.0154 12.7L35.1 22.5769ZM18 22.7692C16.35 22.7692 14.9375 22.1817 13.7625 21.0067C12.5875 19.8317 12 18.4192 12 16.7692C12 15.1192 12.5875 13.7067 13.7625 12.5317C14.9375 11.3567 16.35 10.7692 18 10.7692C19.65 10.7692 21.0625 11.3567 22.2375 12.5317C23.4125 13.7067 24 15.1192 24 16.7692C24 18.4192 23.4125 19.8317 22.2375 21.0067C21.0625 22.1817 19.65 22.7692 18 22.7692ZM4 37.2308V33.9384C4 33.1128 4.24038 32.3403 4.72115 31.6211C5.20192 30.9019 5.84872 30.3436 6.66155 29.9461C8.54872 29.041 10.4372 28.3621 12.3269 27.9096C14.2167 27.457 16.1077 27.2307 18 27.2307C19.8923 27.2307 21.7833 27.457 23.6731 27.9096C25.5628 28.3621 27.4513 29.041 29.3384 29.9461C30.1513 30.3436 30.7981 30.9019 31.2789 31.6211C31.7596 32.3403 32 33.1128 32 33.9384V37.2308H4ZM6 35.2307H30V33.9384C30 33.4949 29.857 33.0782 29.5711 32.6884C29.2852 32.2987 28.8897 31.9692 28.3846 31.7C26.7385 30.9025 25.0412 30.2916 23.2928 29.8673C21.5444 29.4429 19.7802 29.2307 18 29.2307C16.2198 29.2307 14.4556 29.4429 12.7072 29.8673C10.9588 30.2916 9.26153 30.9025 7.6154 31.7C7.11027 31.9692 6.71475 32.2987 6.42885 32.6884C6.14295 33.0782 6 33.4949 6 33.9384V35.2307ZM18 20.7692C19.1 20.7692 20.0417 20.3776 20.825 19.5942C21.6083 18.8109 22 17.8692 22 16.7692C22 15.6692 21.6083 14.7276 20.825 13.9442C20.0417 13.1609 19.1 12.7692 18 12.7692C16.9 12.7692 15.9583 13.1609 15.175 13.9442C14.3917 14.7276 14 15.6692 14 16.7692C14 17.8692 14.3917 18.8109 15.175 19.5942C15.9583 20.3776 16.9 20.7692 18 20.7692Z" fill="#0C3959"/>
</g>
</svg>
