<svg width="24" height="24" viewBox="0 0 24 24" fill="none" xmlns="http://www.w3.org/2000/svg">
<g clip-path="url(#clip0_176_278)">
<path d="M15.2248 8.53922H8.74156C7.5702 8.53922 6.61719 9.49218 6.61719 10.6635V13.3541C6.61719 14.5255 7.5702 15.4784 8.74156 15.4784H15.2248C16.3962 15.4784 17.3492 14.5255 17.3492 13.3541V10.6635C17.3492 9.49218 16.3962 8.53922 15.2248 8.53922ZM16.4117 13.3542C16.4117 14.0086 15.8793 14.541 15.2248 14.541H8.74156C8.08709 14.541 7.55469 14.0086 7.55469 13.3542V10.6636C7.55469 10.0092 8.08709 9.47676 8.74156 9.47676H15.2248C15.8793 9.47676 16.4117 10.0092 16.4117 10.6636V13.3542Z" fill="#0C3959"/>
<path d="M15.2248 16.6047H8.74156C7.5702 16.6047 6.61719 17.5577 6.61719 18.7291V21.4196C6.61719 22.591 7.5702 23.544 8.74156 23.544H15.2248C16.3962 23.544 17.3492 22.591 17.3492 21.4196V18.7291C17.3492 17.5577 16.3962 16.6047 15.2248 16.6047ZM16.4117 21.4197C16.4117 22.0741 15.8793 22.6065 15.2248 22.6065H8.74156C8.08709 22.6065 7.55469 22.0741 7.55469 21.4197V18.7291C7.55469 18.0747 8.08709 17.5423 8.74156 17.5423H15.2248C15.8793 17.5423 16.4117 18.0747 16.4117 18.7291V21.4197Z" fill="#0C3959"/>
<path d="M15.2248 0.455952H14.1094C13.8506 0.455952 13.6407 0.665858 13.6407 0.924702C13.6407 1.18355 13.8506 1.39345 14.1094 1.39345H15.2248C15.8793 1.39345 16.4117 1.92586 16.4117 2.58033V5.27086C16.4117 5.92533 15.8793 6.45773 15.2248 6.45773H8.74156C8.08709 6.45773 7.55469 5.92533 7.55469 5.27086V2.58033C7.55469 1.92586 8.08709 1.39345 8.74156 1.39345H9.97939C10.2382 1.39345 10.4481 1.18355 10.4481 0.924702C10.4481 0.665858 10.2382 0.455952 9.97939 0.455952H8.74156C7.5702 0.455952 6.61719 1.40897 6.61719 2.58033V5.27086C6.61719 6.44222 7.5702 7.39523 8.74156 7.39523H15.2248C16.3962 7.39523 17.3492 6.44222 17.3492 5.27086V2.58033C17.3492 1.40897 16.3962 0.455952 15.2248 0.455952Z" fill="#0C3959"/>
<path d="M20.2954 11.5401H18.8345C18.5756 11.5401 18.3657 11.75 18.3657 12.0088C18.3657 12.2677 18.5756 12.4776 18.8345 12.4776H20.2954C21.8212 12.4776 23.0625 13.7189 23.0625 15.2447V16.8385C23.0625 18.3643 21.8212 19.6056 20.2954 19.6056H19.9661L20.4552 19.1164C20.6383 18.9333 20.6383 18.6366 20.4552 18.4535C20.2721 18.2705 19.9753 18.2705 19.7923 18.4535L18.503 19.7429C18.3227 19.9231 18.3227 20.2256 18.503 20.4058L19.7923 21.6952C19.9729 21.8757 20.2746 21.8757 20.4552 21.6952C20.6383 21.5121 20.6383 21.2153 20.4552 21.0322L19.9661 20.5431H20.2953C22.3381 20.5431 24 18.8812 24 16.8385V15.2446C24 13.202 22.3381 11.5401 20.2954 11.5401Z" fill="#0C3959"/>
<path d="M3.70462 12.5362H4.03392L3.54478 13.0253C3.36173 13.2084 3.36173 13.5052 3.54478 13.6883C3.72398 13.8674 4.02811 13.8679 4.20773 13.6883L5.49703 12.3989C5.6767 12.2192 5.6767 11.9157 5.49703 11.736L4.20773 10.4466C4.02473 10.2636 3.72802 10.2636 3.54478 10.4466C3.36173 10.6296 3.36173 10.9264 3.54478 11.1095L4.03392 11.5987H3.70462C2.1788 11.5987 0.9375 10.3574 0.9375 8.83158V7.23773C0.9375 5.71195 2.1788 4.47065 3.70462 4.47065H5.16553C5.42438 4.47065 5.63428 4.26075 5.63428 4.0019C5.63428 3.74306 5.42438 3.53315 5.16553 3.53315H3.70462C1.66191 3.53315 0 5.19501 0 7.23773V8.83158C0 10.8743 1.66191 12.5362 3.70462 12.5362Z" fill="#0C3959"/>
<path d="M5.17463 19.6057H2.52999L3.01918 19.1165C3.20223 18.9334 3.20223 18.6366 3.01918 18.4535C2.83609 18.2705 2.53937 18.2705 2.35623 18.4535L1.06688 19.7429C0.887211 19.9226 0.887211 20.2261 1.06688 20.4059L2.35623 21.6952C2.53548 21.8744 2.83951 21.8748 3.01918 21.6952C3.20223 21.5122 3.20223 21.2154 3.01918 21.0323L2.52999 20.5431H5.17463C5.43348 20.5431 5.64338 20.3332 5.64338 20.0744C5.64338 19.8155 5.43348 19.6057 5.17463 19.6057Z" fill="#0C3959"/>
<path d="M18.4536 3.39628C18.3126 3.58013 18.33 3.84848 18.4939 4.0125L19.7833 5.30189C19.9639 5.48245 20.2656 5.48245 20.4462 5.30189C20.6293 5.11884 20.6293 4.82203 20.4462 4.63894L19.9571 4.14975H22.6016C22.8605 4.14975 23.0704 3.93984 23.0704 3.681C23.0704 3.42216 22.8605 3.21225 22.6016 3.21225H19.9571L20.4462 2.72311C20.6293 2.54006 20.6293 2.24325 20.4462 2.06016C20.2632 1.8772 19.9665 1.87716 19.7833 2.06016L18.4939 3.3495C18.4794 3.36413 18.4661 3.38002 18.4536 3.39628Z" fill="#0C3959"/>
<path d="M8.93994 3.92559C8.93994 4.18443 9.14985 4.39434 9.40869 4.39434H14.6112C14.87 4.39434 15.0799 4.18443 15.0799 3.92559C15.0799 3.66675 14.87 3.45684 14.6112 3.45684H9.40869C9.1498 3.45684 8.93994 3.66675 8.93994 3.92559Z" fill="#0C3959"/>
<path d="M12.5572 11.5401H9.40869C9.14985 11.5401 8.93994 11.75 8.93994 12.0088C8.93994 12.2677 9.14985 12.4776 9.40869 12.4776H12.5572C12.816 12.4776 13.0259 12.2677 13.0259 12.0088C13.0259 11.75 12.816 11.5401 12.5572 11.5401Z" fill="#0C3959"/>
<path d="M14.6112 19.6234H9.40869C9.14985 19.6234 8.93994 19.8333 8.93994 20.0921C8.93994 20.351 9.14985 20.5609 9.40869 20.5609H14.6112C14.87 20.5609 15.0799 20.351 15.0799 20.0921C15.0799 19.8333 14.87 19.6234 14.6112 19.6234Z" fill="#0C3959"/>
<path d="M15.0438 11.8261C14.8831 11.4399 14.3112 11.4516 14.1698 11.8477C14.1027 12.0356 14.1649 12.2525 14.3229 12.3749C14.4756 12.4932 14.6888 12.506 14.8541 12.4061C15.0501 12.2877 15.1305 12.0373 15.0438 11.8261Z" fill="#0C3959"/>
<path d="M11.638 1.1039C11.7364 1.33973 12.0136 1.45547 12.2502 1.3575C12.4861 1.25981 12.6009 0.980904 12.5033 0.745263C12.4055 0.509248 12.1276 0.394216 11.8916 0.491716C11.656 0.589076 11.5398 0.868404 11.638 1.1039Z" fill="#0C3959"/>
</g>
<defs>
<clipPath id="clip0_176_278">
<rect width="24" height="24" fill="white"/>
</clipPath>
</defs>
</svg>
