<svg width="22" height="18" viewBox="0 0 22 18" fill="none" xmlns="http://www.w3.org/2000/svg">
<path d="M9.83522 17.2019C10.1739 16.8697 10.2091 16.3507 9.91846 15.9806L9.83522 15.8852L3.74866 9.99718H20.5826C21.1198 9.98895 21.5478 9.56469 21.5385 9.04982C21.5303 8.59125 21.1745 8.20681 20.6997 8.14366L20.5826 8.13679H1.42883C1.03912 8.13816 0.689307 8.36471 0.543942 8.71138C0.415611 9.01687 0.462679 9.36424 0.66794 9.62785L0.753451 9.72053L8.47875 17.1999C8.84543 17.5582 9.44564 17.563 9.81934 17.2115C9.82342 17.2081 9.82763 17.204 9.8317 17.1999L9.83522 17.2019ZM5.47402 6.45763L5.56876 6.37663L9.83522 2.24807C10.2091 1.88285 10.2091 1.29796 9.83522 0.932062C9.49961 0.601859 8.95848 0.564789 8.57705 0.84625L8.47738 0.930002L4.21697 5.05376C3.84369 5.41966 3.84369 6.00455 4.21697 6.37113C4.55185 6.70065 5.09332 6.73841 5.47402 6.45763Z" fill="#202020"/>
</svg>
