<svg width="14" height="14" viewBox="0 0 14 14" fill="none" xmlns="http://www.w3.org/2000/svg">
<path d="M8.91606 4.58389C8.60332 4.27052 8.2046 4.05703 7.77041 3.97048C7.33622 3.88393 6.88611 3.92822 6.47712 4.09773C6.06813 4.26724 5.71866 4.55435 5.473 4.92267C5.22733 5.29099 5.09653 5.72394 5.09717 6.16667C5.09717 6.24403 5.1279 6.31821 5.1826 6.37291C5.2373 6.42761 5.31148 6.45834 5.38884 6.45834C5.46619 6.45834 5.54038 6.42761 5.59508 6.37291C5.64977 6.31821 5.6805 6.24403 5.6805 6.16667C5.67973 5.83868 5.77634 5.51785 5.95808 5.24482C6.13982 4.97178 6.39852 4.75884 6.70139 4.63297C7.00427 4.5071 7.33769 4.47396 7.65941 4.53776C7.98114 4.60156 8.27668 4.75942 8.50861 4.99135C8.74053 5.22327 8.89839 5.51882 8.96219 5.84054C9.02599 6.16226 8.99285 6.49568 8.86698 6.79856C8.74111 7.10143 8.52817 7.36013 8.25514 7.54187C7.9821 7.72361 7.66127 7.82022 7.33328 7.81945C7.25624 7.82046 7.18264 7.85151 7.12816 7.90599C7.07367 7.96047 7.04262 8.03407 7.04161 8.11111V8.88889C7.04161 8.96625 7.07234 9.04043 7.12704 9.09513C7.18174 9.14983 7.25593 9.18056 7.33328 9.18056C7.41064 9.18056 7.48482 9.14983 7.53952 9.09513C7.59422 9.04043 7.62495 8.96625 7.62495 8.88889V8.38334C8.03835 8.32795 8.42808 8.15825 8.75024 7.89333C9.07241 7.62841 9.3142 7.2788 9.4484 6.88388C9.5826 6.48897 9.60387 6.06442 9.50982 5.65807C9.41577 5.25171 9.21013 4.87969 8.91606 4.58389Z" fill="#525F7F"/>
<path d="M7.33328 10.7361C7.60175 10.7361 7.81939 10.5185 7.81939 10.25C7.81939 9.98152 7.60175 9.76389 7.33328 9.76389C7.06481 9.76389 6.84717 9.98152 6.84717 10.25C6.84717 10.5185 7.06481 10.7361 7.33328 10.7361Z" fill="#525F7F"/>
<circle cx="7" cy="7" r="6.5" stroke="#525F7F"/>
</svg>
