<svg width="8" height="14" viewBox="0 0 8 14" fill="none" xmlns="http://www.w3.org/2000/svg">
<path d="M0.515437 1.45796C0.455291 1.39432 0.408271 1.31944 0.377061 1.23763C0.345851 1.15581 0.331061 1.06864 0.333537 0.981106C0.336013 0.893572 0.355707 0.807382 0.391493 0.727458C0.427278 0.647534 0.478456 0.575441 0.542103 0.515296C0.605751 0.455151 0.680622 0.40813 0.762441 0.37692C0.84426 0.34571 0.931425 0.33092 1.01896 0.333397C1.10649 0.335873 1.19268 0.355566 1.27261 0.391352C1.35253 0.427138 1.42462 0.478315 1.48477 0.541963L7.15144 6.54196C7.26846 6.66574 7.33367 6.82962 7.33367 6.99996C7.33367 7.1703 7.26846 7.33418 7.15144 7.45796L1.48477 13.4586C1.42502 13.5237 1.35294 13.5762 1.27273 13.6131C1.19251 13.6501 1.10575 13.6707 1.01749 13.6739C0.929223 13.677 0.841217 13.6626 0.758579 13.6314C0.675941 13.6002 0.600319 13.553 0.536105 13.4923C0.471891 13.4317 0.420366 13.3589 0.384522 13.2782C0.348678 13.1975 0.329229 13.1104 0.327306 13.0221C0.325384 12.9338 0.341024 12.846 0.37332 12.7638C0.405616 12.6816 0.453924 12.6067 0.515437 12.5433L5.7501 6.99996L0.515437 1.45796Z" fill="#0094FF"/>
</svg>
