<svg width="16" height="16" viewBox="0 0 16 16" fill="none" xmlns="http://www.w3.org/2000/svg">
<g clip-path="url(#clip0_197_253)">
<path d="M14.9129 8.35882C14.1776 7.62688 13.3277 8.31194 13.3277 8.31194V4.45877C13.3277 4.32938 13.2228 4.2244 13.0934 4.2244C12.9639 4.2244 12.859 4.32938 12.859 4.45877V8.64166C12.859 8.64166 11.7415 9.52264 11.2611 9.73798V2.80019C11.2611 2.47768 11.5235 2.21535 11.846 2.21535H12.2742C12.5967 2.21535 12.859 2.47768 12.859 2.80019V3.49929C12.859 3.62881 12.9639 3.73367 13.0934 3.73367C13.2228 3.73367 13.3277 3.62881 13.3277 3.49929V2.80019C13.3277 2.21926 12.8551 1.74672 12.2742 1.74672H11.846C11.265 1.74672 10.7924 2.21926 10.7924 2.80019V9.92377C10.6526 9.96295 10.5092 9.98957 10.3634 10.0036V5.06254C10.3634 4.47867 9.88844 4.00369 9.3047 4.00369H8.88685C8.3031 4.00369 7.82812 4.47867 7.82812 5.06254V7.45049L7.39904 7.67827V6.88359C7.39904 6.35795 6.97143 5.93034 6.44591 5.93034H5.817C5.29137 5.93034 4.86387 6.35795 4.86387 6.88359V9.02398L4.09861 9.43011L1.94967 10.0443C1.57577 10.1511 1.26351 10.3959 1.07064 10.7336C0.877643 11.0714 0.825275 11.4647 0.923176 11.841L1.16353 12.7658C1.196 12.8911 1.32393 12.9661 1.4493 12.9337C1.57455 12.9011 1.64974 12.7732 1.61715 12.6478L1.37679 11.7231C1.23739 11.1867 1.54562 10.6472 2.07858 10.4949L4.04331 9.93341L5.52 13.8746C5.61888 14.1385 5.60326 14.8915 4.82212 15.1689L3.33737 15.5062C2.81992 15.6236 2.31002 15.3135 2.17648 14.7998L1.87509 13.64C1.84249 13.5147 1.71456 13.4395 1.58932 13.472C1.46395 13.5046 1.38888 13.6325 1.42135 13.7579L1.72286 14.9178C1.8923 15.5694 2.47116 16 3.11557 16C3.58909 16 4.92601 15.626 4.92601 15.626C5.33287 15.5337 5.6798 15.27 5.87767 14.9028C6.041 14.5998 6.08947 14.2512 6.0194 13.919L11.1561 12.6615C11.581 12.5573 11.9843 12.3555 12.3222 12.0778L14.8219 10.0239C15.584 9.34796 15.137 8.58184 14.9129 8.35882ZM8.88685 4.47244H9.3047C9.63002 4.47244 9.89466 4.73722 9.89466 5.06254V10.0153L8.41577 10.0147C8.27991 10.0135 8.3739 9.92377 8.38135 9.91767L8.80726 9.57269C9.2046 9.25079 9.46412 8.80328 9.5785 8.24236C9.65113 7.88653 9.51539 7.53032 9.22449 7.31279C8.95276 7.10967 8.60328 7.0706 8.29688 7.20488V5.06254C8.29688 4.73722 8.56153 4.47244 8.88685 4.47244ZM5.33263 6.88359C5.33263 6.6165 5.54991 6.39909 5.817 6.39909H6.44591C6.71301 6.39909 6.93041 6.6165 6.93041 6.88359V7.92705L5.3325 8.7752V6.88359H5.33263ZM14.5245 9.66181L12.0246 11.7158C11.7406 11.9492 11.4018 12.1187 11.0447 12.2061L5.8701 13.4731L4.47849 9.75934L8.45191 7.6502C8.61341 7.56438 8.79737 7.57866 8.94373 7.68816C9.09009 7.79766 9.15577 7.96978 9.11927 8.14874C9.02711 8.60028 8.82288 8.95685 8.51221 9.20843L8.0863 9.55353C7.91174 9.69489 7.84741 9.92304 7.92236 10.1348C7.99731 10.3465 8.19092 10.4835 8.41553 10.4835L10.1232 10.4842H10.1244C10.7323 10.4842 11.3165 10.2994 11.8139 9.94965L13.7223 8.6076C13.9895 8.41961 14.3493 8.45281 14.5776 8.68646C14.709 8.82074 14.9664 9.21979 14.5245 9.66181Z" fill="#525F7F"/>
<path d="M4.62208 14.0247C4.62208 13.5156 4.20789 13.1013 3.69874 13.1013C3.18958 13.1013 2.77539 13.5156 2.77539 14.0247C2.77539 14.5338 3.18958 14.9481 3.69874 14.9481C4.20789 14.9481 4.62208 14.5338 4.62208 14.0247ZM3.24414 14.0247C3.24414 13.774 3.448 13.57 3.69874 13.57C3.94935 13.57 4.15333 13.774 4.15333 14.0247C4.15333 14.2754 3.94947 14.4793 3.69874 14.4793C3.448 14.4793 3.24414 14.2754 3.24414 14.0247Z" fill="#525F7F"/>
<path d="M2.01359 7.35881L5.4206 3.92556L6.18696 4.32192C6.4615 4.46389 6.7956 4.41531 7.01826 4.20095L8.87277 2.41579C8.87277 2.41579 8.82174 3.33266 9.59384 3.33266C9.9913 3.33266 10.3148 3.00917 10.3148 2.61159V0.720951C10.3148 0.718754 10.3147 0.716435 10.3147 0.714116C10.3121 0.220826 9.95138 0 9.59384 0H7.71968C7.3221 0 6.99873 0.323488 6.99873 0.720951C6.99873 1.51344 7.80525 1.4419 7.80525 1.4419L6.39045 2.80373L5.61298 2.40163C5.33185 2.25612 4.9931 2.30946 4.76996 2.53407L0.990149 6.34305C0.710118 6.62528 0.711827 7.08268 0.994056 7.36271C1.13004 7.4976 1.5944 7.778 2.01359 7.35881ZM1.32279 6.67326L5.1026 2.86427C5.15143 2.8152 5.2298 2.72926 5.39765 2.81801L6.32429 3.29726C6.41352 3.3434 6.52216 3.32766 6.59455 3.25795L8.54915 1.37647C8.618 1.31019 8.63973 1.20863 8.60396 1.12C8.5682 1.03126 8.48226 0.973272 8.38656 0.973272H7.71968C7.58064 0.973272 7.46748 0.860112 7.46748 0.720951C7.46748 0.581913 7.58064 0.468753 7.71968 0.468753H9.59384C9.66281 0.468753 9.84592 0.468753 9.84592 0.719487C9.84592 0.721562 9.84604 0.723637 9.84604 0.725834V2.61159C9.84604 2.75063 9.73288 2.86379 9.59384 2.86379C9.45468 2.86379 9.34152 2.75063 9.34152 2.61159V1.86488C9.34152 1.77088 9.28537 1.68592 9.19894 1.64918C9.11251 1.61231 9.01241 1.63087 8.94466 1.69605L6.69319 3.8633C6.6153 3.93826 6.49836 3.95535 6.40241 3.90566L5.48322 3.4302C5.39228 3.3832 5.28131 3.40065 5.20917 3.47329L1.68095 7.02861C1.52714 7.18242 1.37174 7.07719 1.32414 7.02995C1.2255 6.93193 1.22489 6.77189 1.32279 6.67326Z" fill="#525F7F"/>
</g>
<defs>
<clipPath id="clip0_197_253">
<rect width="16" height="16" fill="white"/>
</clipPath>
</defs>
</svg>
