<svg width="128" height="128" viewBox="0 0 128 128" fill="none" xmlns="http://www.w3.org/2000/svg">
<path d="M77.3327 50.6666L50.666 77.3333M50.666 50.6666L77.3327 77.3333M117.333 64C117.333 89.1413 117.333 101.712 109.519 109.52C101.717 117.333 89.1407 117.333 63.9993 117.333C38.858 117.333 26.2873 117.333 18.474 109.52C10.666 101.717 10.666 89.1413 10.666 64C10.666 38.8586 10.666 26.288 18.474 18.4746C26.2927 10.6666 38.858 10.6666 63.9993 10.6666C89.1407 10.6666 101.711 10.6666 109.519 18.4746C114.714 23.6693 116.453 30.9706 117.039 42.6666" stroke="#BC1414" stroke-width="6.25" stroke-linecap="round"/>
</svg>
