<svg width="22" height="22" viewBox="0 0 22 22" fill="none" xmlns="http://www.w3.org/2000/svg">
<g clip-path="url(#clip0_13_159)">
<path d="M11 0C12.2659 0 13.2916 1.02575 13.2916 2.29167C13.2916 3.55758 12.2659 4.58333 11 4.58333C9.73405 4.58333 8.7083 3.55758 8.7083 2.29167C8.7083 1.02575 9.73405 0 11 0ZM13.75 17.4167V13.5933C14.817 13.2147 15.5833 12.1953 15.5833 11V9.16667C15.5833 7.1445 13.9388 5.5 11.9166 5.5H10.0833C8.06113 5.5 6.41663 7.1445 6.41663 9.16667V11C6.41663 12.1953 7.18297 13.2147 8.24997 13.5933V17.4167C8.24997 17.9227 8.65972 18.3333 9.16663 18.3333C9.67355 18.3333 10.0833 17.9227 10.0833 17.4167V12.8333C10.0833 12.3273 9.67355 11.9167 9.16663 11.9167C8.65972 11.9167 8.24997 11.5051 8.24997 11V9.16667C8.24997 8.15558 9.07222 7.33333 10.0833 7.33333H11.9166C12.9277 7.33333 13.75 8.15558 13.75 9.16667V11C13.75 11.5051 13.3393 11.9167 12.8333 11.9167C12.3273 11.9167 11.9166 12.3273 11.9166 12.8333V17.4167C11.9166 17.9227 12.3264 18.3333 12.8333 18.3333C13.3402 18.3333 13.75 17.9227 13.75 17.4167ZM22 17.875C22 16.2727 20.1125 14.9985 16.6861 14.2881C16.192 14.1845 15.7052 14.5035 15.6016 14.9994C15.499 15.4953 15.817 15.9803 16.313 16.0829C19.1959 16.6815 20.1657 17.5643 20.1657 17.875C20.1657 18.5607 17.0472 20.1667 10.999 20.1667C4.95088 20.1667 1.83238 18.5607 1.83238 17.875C1.83238 17.5643 2.80313 16.6815 5.68513 16.0829C6.18105 15.9803 6.50005 15.4944 6.39647 14.9994C6.29288 14.5035 5.8043 14.1845 5.31205 14.2881C1.88555 14.9985 -0.00186729 16.2727 -0.00186729 17.875C-0.00186729 20.7093 5.70072 22 10.9981 22C16.2955 22 21.9981 20.7093 21.9981 17.875H22Z" fill="#525F7F"/>
</g>
<defs>
<clipPath id="clip0_13_159">
<rect width="22" height="22" fill="white"/>
</clipPath>
</defs>
</svg>
