<svg width="46" height="46" viewBox="0 0 46 46" fill="none" xmlns="http://www.w3.org/2000/svg">
<path d="M23 36.4167H31.625C33.4041 36.4167 35.1104 35.7099 36.3685 34.4518C37.6266 33.1938 38.3333 31.4875 38.3333 29.7083C38.3333 27.9292 37.6266 26.2229 36.3685 24.9648C35.1104 23.7068 33.4041 23 31.625 23H16.2917C14.5125 23 12.8062 22.2932 11.5481 21.0352C10.2901 19.7771 9.58332 18.0708 9.58332 16.2917C9.58332 14.5125 10.2901 12.8062 11.5481 11.5482C12.8062 10.2901 14.5125 9.58333 16.2917 9.58333H23M7.66666 36.4167C7.66666 37.4333 8.07052 38.4084 8.78941 39.1272C9.5083 39.8461 10.4833 40.25 11.5 40.25C12.5167 40.25 13.4917 39.8461 14.2106 39.1272C14.9295 38.4084 15.3333 37.4333 15.3333 36.4167C15.3333 35.4 14.9295 34.425 14.2106 33.7061C13.4917 32.9872 12.5167 32.5833 11.5 32.5833C10.4833 32.5833 9.5083 32.9872 8.78941 33.7061C8.07052 34.425 7.66666 35.4 7.66666 36.4167ZM30.6667 9.58333C30.6667 10.6 31.0705 11.575 31.7894 12.2939C32.5083 13.0128 33.4833 13.4167 34.5 13.4167C35.5167 13.4167 36.4917 13.0128 37.2106 12.2939C37.9295 11.575 38.3333 10.6 38.3333 9.58333C38.3333 8.56667 37.9295 7.59165 37.2106 6.87276C36.4917 6.15387 35.5167 5.75 34.5 5.75C33.4833 5.75 32.5083 6.15387 31.7894 6.87276C31.0705 7.59165 30.6667 8.56667 30.6667 9.58333Z" stroke="#D9D9D9" stroke-width="2" stroke-linecap="round" stroke-linejoin="round"/>
</svg>
