<svg width="51" height="48" viewBox="0 0 51 48" fill="none" xmlns="http://www.w3.org/2000/svg">
<path d="M12.8457 0.220006L5.8757 7.19638L3.1557 4.47638L0.0957031 7.53001L4.3457 11.78L5.8757 13.2378L7.4057 11.7779L15.9057 3.27788L12.8457 0.21788V0.220006ZM22.8757 3.87501V8.12501H50.5007V3.87501H22.8757ZM12.8457 17.22L5.8757 24.1985L3.1557 21.47L0.0957031 24.53L4.3457 28.78L5.8757 30.2378L7.4057 28.7779L15.9057 20.2779L12.8457 17.22ZM22.8757 20.875V25.125H50.5007V20.875H22.8757ZM12.8457 34.22L5.8757 41.1964L3.1557 38.4764L0.0957031 41.53L4.3457 45.78L5.8757 47.2378L7.4057 45.7779L15.9057 37.2779L12.8457 34.2179V34.22ZM22.8757 37.875V42.125H50.5007V37.875H22.8757Z" fill="#0C3959"/>
</svg>
