<svg width="17" height="18" viewBox="0 0 17 18" fill="none" xmlns="http://www.w3.org/2000/svg">
<path d="M17 9C17 10.7765 16.5019 12.5041 15.5598 13.9962C15.4318 14.199 15.2214 14.3086 15.0072 14.3086C14.8803 14.3086 14.752 14.2703 14.6387 14.1899C14.3338 13.9742 14.2519 13.5375 14.4557 13.2146C15.2514 11.9546 15.6719 10.4973 15.6719 9C15.6719 8.35661 15.5959 7.71762 15.4459 7.10101C15.3545 6.72501 15.5684 6.34158 15.9235 6.24477C16.2789 6.14809 16.6407 6.3744 16.7322 6.75041C16.9098 7.48155 17 8.23837 17 9ZM12.2099 15.5002C11.0945 16.2155 9.81164 16.5938 8.49999 16.5938C4.54545 16.5938 1.32812 13.1872 1.32812 9C1.32812 4.81284 4.54545 1.40625 8.49999 1.40625C9.96417 1.40625 11.3721 1.87015 12.5717 2.74782C12.8733 2.96851 13.2869 2.88844 13.4955 2.56902C13.7039 2.24959 13.6284 1.81165 13.3266 1.59082C11.9041 0.55014 10.2351 0 8.49999 0C6.2296 0 4.09501 0.936172 2.48958 2.63603C0.884162 4.33589 0 6.59605 0 9C0 11.4039 0.884162 13.6641 2.48958 15.364C4.09501 17.0638 6.2296 18 8.49999 18C10.0543 18 11.5752 17.5515 12.8981 16.7029C13.2118 16.5017 13.3121 16.0694 13.1221 15.7372C12.932 15.405 12.5237 15.299 12.2099 15.5002ZM8.56406 11.0388C8.45888 11.0432 8.36069 11.0036 8.28443 10.9267L4.80654 7.43513C4.54039 7.16789 4.12004 7.1797 3.86777 7.4615C3.61538 7.7433 3.62653 8.18839 3.89267 8.45549L7.36992 11.9465C7.69106 12.2698 8.10648 12.4453 8.54668 12.4453C8.57029 12.4453 8.59389 12.4448 8.6175 12.4438C9.08377 12.4239 9.51204 12.2102 9.82332 11.842C9.83123 11.8328 9.83875 11.8233 9.84614 11.8136L16.8534 2.58508C17.0833 2.28241 17.0379 1.8398 16.752 1.59659C16.4663 1.35324 16.0481 1.40131 15.8183 1.70398L8.82476 10.9145C8.75602 10.9904 8.66393 11.0345 8.56406 11.0388Z" fill="#0C3959"/>
</svg>
