<svg width="23" height="23" viewBox="0 0 23 23" fill="none" xmlns="http://www.w3.org/2000/svg">
<path d="M11.0479 9.37322C11.1277 9.39982 11.2103 9.41922 11.2937 9.43144C11.4267 9.46522 11.5618 9.48894 11.6984 9.50331C11.7634 9.81623 11.932 10.0981 12.1769 10.3034C12.4218 10.5088 12.7287 10.6256 13.0482 10.6351C13.3677 10.6446 13.681 10.5461 13.9376 10.3556C14.1943 10.1652 14.3792 9.89377 14.4627 9.58525C14.6194 9.02032 14.6999 8.43669 14.702 7.85019C15.045 7.38488 15.3271 6.87764 15.5415 6.34082L15.5509 6.31925L15.6278 6.13238L15.7262 5.88369C15.8314 5.61125 15.9309 5.33663 16.0245 5.06L16.0439 5.0025L16.0511 4.9795C16.1 4.83575 16.1489 4.67619 16.1949 4.51519C16.2222 4.42247 16.2481 4.32832 16.2732 4.23344C16.3914 3.81274 16.4689 3.38167 16.5047 2.94616V2.9246C16.5171 2.56813 16.3966 2.21975 16.1665 1.94718C15.9365 1.6746 15.6133 1.4973 15.2598 1.44972C14.9802 1.41384 14.6963 1.46267 14.4447 1.58988C14.2238 1.70174 14.0355 1.86877 13.8981 2.07479C13.7608 2.2808 13.6789 2.51881 13.6606 2.76575V2.77294C13.6046 3.21245 13.5009 3.64456 13.3515 4.06166C13.2796 4.27728 13.2077 4.48213 13.1359 4.66541C12.9921 4.59138 12.8412 4.52885 12.6874 4.47853L12.6737 4.47207C12.0265 4.2663 11.3243 4.32383 10.7192 4.6322C10.1141 4.94056 9.65493 5.47492 9.44108 6.11949C9.22723 6.76407 9.27596 7.46695 9.57673 8.07584C9.87749 8.68473 10.4061 9.1506 11.0479 9.3725V9.37322ZM13.7691 9.3955C13.7308 9.53741 13.6491 9.66376 13.5353 9.75679C13.4215 9.84981 13.2814 9.90483 13.1348 9.91411C12.9881 9.9234 12.8422 9.88647 12.7176 9.80853C12.593 9.73059 12.496 9.61555 12.4401 9.4796C12.5767 9.45516 12.7111 9.42066 12.8419 9.3761C13.2373 9.23541 13.601 9.01802 13.9121 8.73641C13.8762 8.95922 13.8287 9.17844 13.7691 9.3955ZM10.0963 6.33363C10.1731 6.10187 10.2949 5.88752 10.4547 5.70284C10.6144 5.51815 10.8089 5.36675 11.0272 5.25729C11.2455 5.14782 11.4832 5.08244 11.7267 5.06486C11.9703 5.04729 12.2149 5.07788 12.4466 5.15488L12.4682 5.16207C12.6083 5.20663 12.7434 5.26557 12.8714 5.33744L12.8563 5.37266V5.38128C12.6956 5.7553 12.4773 6.10186 12.2094 6.40838L12.1979 6.41988L12.1799 6.44072C12.157 6.46777 12.133 6.4939 12.1081 6.51907C12.0843 6.50938 12.0604 6.50027 12.0362 6.49175L12.0146 6.48457C11.9002 6.44675 11.7755 6.45576 11.6678 6.50964C11.56 6.56352 11.478 6.65787 11.4396 6.77207C11.4181 6.82772 11.4089 6.88737 11.4126 6.94693C11.4163 7.00648 11.4329 7.06453 11.4612 7.11707C11.5043 7.20907 11.5776 7.2831 11.6689 7.32694C11.6933 7.33269 11.7171 7.33916 11.7408 7.34707C11.8055 7.37007 11.873 7.38516 11.9413 7.39091C12.0507 7.39737 12.1597 7.37244 12.2554 7.31903C12.3057 7.29316 12.3539 7.26369 12.3992 7.22991C12.5199 7.13503 12.6306 7.02866 12.7283 6.91007L12.7355 6.90288C13.0567 6.54104 13.318 6.13025 13.5096 5.68603C13.532 5.63506 13.5531 5.58354 13.5729 5.5315C13.5738 5.52797 13.5738 5.52426 13.5729 5.52072L13.5801 5.50347C13.6201 5.40981 13.6589 5.31564 13.6965 5.221L13.7209 5.15847L13.7454 5.09522C14.0501 4.36569 14.2629 3.60094 14.38 2.81894C14.3937 2.63246 14.4796 2.45866 14.6194 2.3345C14.7586 2.21058 14.9414 2.14699 15.1275 2.15769C15.2821 2.16632 15.4294 2.22669 15.5444 2.33019C15.6248 2.40069 15.6885 2.48825 15.7308 2.58648C15.773 2.68471 15.7929 2.79114 15.7888 2.898C15.7816 3.01228 15.7679 3.13303 15.7492 3.25738C15.6917 3.611 15.6112 3.96175 15.5077 4.3046L15.4776 4.40522C15.347 4.83352 15.1996 5.25648 15.0355 5.6731L15.0118 5.73347C14.9711 5.83665 14.9294 5.93943 14.8867 6.04182L14.876 6.06769L14.8142 6.21719C14.5614 6.80358 14.2185 7.34681 13.7978 7.82719C13.4612 8.25559 13.0022 8.57144 12.4818 8.73281C12.2377 8.79911 11.983 8.8167 11.7322 8.78457C11.6297 8.77187 11.5283 8.75169 11.4288 8.72419C11.3765 8.71967 11.3248 8.70881 11.275 8.69185C11.0428 8.61446 10.828 8.49206 10.643 8.33165C10.4581 8.17124 10.3065 7.97596 10.1971 7.75696C10.0876 7.53796 10.0224 7.29954 10.0051 7.05532C9.98777 6.8111 10.0188 6.56587 10.0963 6.33363ZM8.66812 2.86063C8.59288 2.91395 8.50772 2.95166 8.41766 2.97151C8.3276 2.99136 8.23448 2.99295 8.14379 2.9762C8.0531 2.95945 7.9667 2.92468 7.88967 2.87397C7.81265 2.82325 7.74658 2.75761 7.69536 2.68092C7.64413 2.60423 7.60881 2.51806 7.59146 2.42748C7.57411 2.33691 7.57509 2.24377 7.59435 2.15359C7.61361 2.0634 7.65075 1.97799 7.70358 1.9024C7.75641 1.82681 7.82386 1.76258 7.90194 1.7135C8.05407 1.61788 8.2375 1.58537 8.41323 1.62289C8.58896 1.66042 8.74312 1.76501 8.84292 1.91444C8.94272 2.06386 8.9803 2.24633 8.94766 2.42303C8.91501 2.59973 8.81473 2.75672 8.66812 2.86063ZM17.227 16.4062C17.303 16.3522 17.389 16.314 17.48 16.2939C17.571 16.2738 17.6652 16.2721 17.7568 16.2889C17.8485 16.3058 17.9358 16.3409 18.0137 16.3921C18.0916 16.4433 18.1584 16.5096 18.2102 16.5871C18.262 16.6645 18.2978 16.7516 18.3154 16.8431C18.3329 16.9347 18.332 17.0288 18.3126 17.12C18.2931 17.2111 18.2556 17.2975 18.2022 17.3739C18.1489 17.4503 18.0807 17.5152 18.0018 17.5648C17.8482 17.6614 17.6629 17.6943 17.4853 17.6565C17.3078 17.6186 17.1521 17.5131 17.0511 17.3622C16.9502 17.2113 16.9122 17.027 16.945 16.8485C16.9778 16.67 17.079 16.5113 17.227 16.4062ZM17.945 6.4055C18.1662 6.4055 18.3782 6.31766 18.5346 6.1613C18.6909 6.00494 18.7788 5.79288 18.7788 5.57175C18.7788 5.35063 18.6909 5.13856 18.5346 4.9822C18.3782 4.82584 18.1662 4.738 17.945 4.738C17.7239 4.738 17.5118 4.82584 17.3555 4.9822C17.1991 5.13856 17.1113 5.35063 17.1113 5.57175C17.1113 5.79288 17.1991 6.00494 17.3555 6.1613C17.5118 6.31766 17.7239 6.4055 17.945 6.4055ZM4.78041 6.26463C4.68944 6.32819 4.5867 6.37296 4.4782 6.3963C4.36971 6.41964 4.25765 6.42109 4.14859 6.40056C4.03953 6.38002 3.93566 6.33793 3.84309 6.27673C3.75051 6.21554 3.67108 6.13647 3.60945 6.04418C3.54783 5.95189 3.50525 5.84822 3.48421 5.73926C3.46317 5.63029 3.4641 5.51822 3.48694 5.40962C3.50978 5.30102 3.55406 5.19807 3.61721 5.10681C3.68035 5.01555 3.76108 4.93782 3.85466 4.87816C4.03861 4.7554 4.26379 4.71074 4.48067 4.75401C4.69755 4.79727 4.88836 4.92493 5.01112 5.10888C5.13389 5.29283 5.17855 5.51802 5.13528 5.7349C5.09201 5.95178 4.96436 6.14258 4.78041 6.26535V6.26463Z" fill="#525F7F"/>
<path d="M21.1284 10.7022C21.0389 10.7436 20.9421 10.7669 20.8435 10.7708C20.745 10.7748 20.6466 10.7593 20.5541 10.7252C19.7918 10.44 18.9694 10.3543 18.1647 10.4761C17.36 10.598 16.5998 10.9235 15.9563 11.4217C17.6288 11.4648 19.2639 11.9205 20.7165 12.7506C21.0717 12.9511 21.3332 13.2839 21.4441 13.6764C21.5549 14.0689 21.5061 14.4894 21.3082 14.846C21.1103 15.2027 20.7795 15.4667 20.3878 15.5804C19.9961 15.6941 19.5753 15.6484 19.2172 15.4531C18.3574 14.9541 17.4011 14.6438 16.412 14.5431C15.4229 14.4423 14.4237 14.5534 13.4809 14.8688C13.7217 15.3309 13.9021 15.8226 14.0163 16.3314C14.0573 16.4831 14.0774 16.6405 14.0767 16.7972C14.1011 16.9958 14.083 17.1974 14.0235 17.3885C13.964 17.5795 13.8645 17.7558 13.7317 17.9055C13.6742 17.963 13.6103 18.0133 13.5413 18.0557C13.3289 18.2597 13.0678 18.4059 12.783 18.4805L3.62753 20.9314C3.33234 21.0102 3.02161 21.0098 2.72661 20.9304C2.43162 20.8509 2.16275 20.6951 1.94708 20.4787C1.73141 20.2623 1.57655 19.9929 1.49807 19.6977C1.41959 19.4024 1.42027 19.0917 1.50003 18.7967L3.95097 9.63987C4.02624 9.35177 4.17481 9.08806 4.38222 8.8744C4.42314 8.80813 4.47135 8.74665 4.52597 8.69112C4.67098 8.56158 4.8415 8.46383 5.02656 8.40416C5.21163 8.34449 5.40713 8.32423 5.6005 8.34468C5.77516 8.34037 5.94981 8.36265 6.118 8.41081C6.56438 8.51166 6.99722 8.6651 7.40744 8.86794C7.60869 7.70356 7.41463 6.50468 6.85472 5.46394C6.74892 5.26664 6.72584 5.0354 6.79053 4.82108C6.85524 4.60676 7.00242 4.42692 7.19972 4.32112C7.39702 4.21533 7.62826 4.19224 7.84258 4.25694C8.0569 4.32164 8.23674 4.46883 8.34253 4.66612C9.18313 6.23211 9.39494 8.0597 8.93478 9.77643C9.49273 10.1725 10.0232 10.606 10.5225 11.0738C10.6739 10.9203 10.8793 10.832 11.0949 10.8278C11.3105 10.8236 11.5192 10.9039 11.6764 11.0514C11.8337 11.1989 11.9271 11.402 11.9367 11.6174C11.9463 11.8328 11.8714 12.0434 11.7278 12.2044C12.7691 11.7969 13.8638 11.5425 14.978 11.449C14.8897 11.3781 14.8184 11.2882 14.7695 11.1859C14.7207 11.0837 14.6954 10.9718 14.6957 10.8585C14.696 10.7452 14.7218 10.6335 14.7711 10.5315C14.8205 10.4295 14.8922 10.34 14.9809 10.2695C15.8293 9.59856 16.8365 9.15802 17.905 8.99055C18.9736 8.82307 20.0673 8.93434 21.0802 9.31356C21.219 9.36615 21.3392 9.45859 21.4257 9.57927C21.5122 9.69995 21.561 9.84349 21.5662 9.99185C21.5713 10.1402 21.5325 10.2868 21.4546 10.4132C21.3767 10.5396 21.2632 10.6401 21.1284 10.7022ZM8.27138 15.99L8.14128 15.8786L8.26059 15.9807L8.27138 15.99ZM8.27138 15.99L8.36625 16.0705C8.3348 16.0432 8.30318 16.0169 8.27138 15.99ZM2.91381 20.2364C3.08631 20.2831 3.26888 20.2831 3.44209 20.2371L3.85753 20.1286C3.27005 19.7026 2.74233 19.1998 2.2885 18.6336L2.19434 18.9858C2.15943 19.1151 2.15034 19.2501 2.1676 19.383C2.18486 19.5159 2.22814 19.644 2.29495 19.7602C2.36177 19.8763 2.45081 19.9781 2.557 20.0599C2.66319 20.1416 2.78443 20.2016 2.91381 20.2364ZM4.06094 18.4345C4.5724 18.9064 5.14808 19.3035 5.77084 19.614L7.78191 19.0756C6.99932 18.6132 6.26912 18.0674 5.60409 17.4477C4.73463 16.6262 3.97552 15.6953 3.34578 14.6783L2.77509 16.8123C3.12442 17.4114 3.55739 17.9576 4.06094 18.4345ZM6.58878 16.3968C7.54798 17.2825 8.64845 18.0015 9.84472 18.5243L11.6351 18.0442C9.99782 17.3969 8.52287 16.3974 7.31472 15.1167C6.89167 14.6961 6.49239 14.2522 6.11872 13.7871C5.95341 13.5822 5.79959 13.3774 5.65584 13.174C5.11802 12.4478 4.68896 11.6471 4.38222 10.7971L3.87694 12.7097C4.56287 14.0851 5.48018 15.3323 6.58878 16.3968ZM20.6288 13.5865C20.5583 13.5011 20.4713 13.4307 20.373 13.3795H20.3694C19.1513 12.6828 17.7933 12.266 16.3941 12.1595C14.9948 12.053 13.5894 12.2593 12.2798 12.7636L12.1418 12.8139L12.1483 12.8211C10.7866 13.3664 9.5708 14.2218 8.59769 15.3194C8.78384 15.4826 8.96425 15.6321 9.14322 15.7758C9.39406 15.9771 9.64634 16.1632 9.93384 16.3508C10.7182 15.4482 11.7124 14.7521 12.829 14.324C13.9177 13.8969 15.0885 13.7199 16.2548 13.8061C17.4211 13.8924 18.5531 14.2395 19.5673 14.8221C19.7345 14.9224 19.9319 14.9604 20.1245 14.9292C20.3171 14.898 20.4924 14.7997 20.6195 14.6517C20.7466 14.5037 20.8172 14.3155 20.819 14.1205C20.8207 13.9254 20.7533 13.7367 20.6288 13.5865Z" fill="#525F7F"/>
</svg>
